<?xml version="1.0" encoding="utf-8"?>
<!-- Generator: Adobe Illustrator 27.5.0, SVG Export Plug-In . SVG Version: 6.00 Build 0)  -->
<svg version="1.1" id="Layer_1" xmlns="http://www.w3.org/2000/svg" xmlns:xlink="http://www.w3.org/1999/xlink" x="0px" y="0px"
	 viewBox="0 0 500 400" style="enable-background:new 0 0 500 400;" xml:space="preserve">
<g id="XMLID_1096_">
	<g id="XMLID_507_">
		<g id="XMLID_505_">
			<path style="fill:#F2F1F7;" d="M150.015,354.394c-2.291,0-4.489-0.058-6.609-0.171c-14.779-0.794-25.727-4.338-34.455-11.152
				c-16.996-13.271-24.225-38.054-35.167-75.568c-2.541-8.713-5.169-17.722-8.197-27.57c-12.006-39.041-12-67.395,0.021-94.808
				c13.738-31.328,44.409-62.667,96.525-98.622l0.482,0.7l-0.482-0.7c72.119-49.757,118.623-18.108,155.99,7.325
				c6.509,4.43,12.658,8.615,18.654,12.18c9.964,5.924,20.566,11.087,30.819,16.08c31.674,15.425,61.592,29.994,66.82,63.781
				c3.456,22.332-0.735,37.674-6.534,58.91c-5.895,21.584-13.231,48.446-16.522,94.835c-3.529,49.757-43.136,47.585-97.952,44.58
				c-33.304-1.826-71.052-3.897-111.616,4.001C180.259,352.386,163.567,354.393,150.015,354.394z M235.057,22.001
				c-20.864,0-44.539,6.982-71.958,25.9c-51.844,35.768-82.328,66.879-95.933,97.906c-11.843,27.008-11.829,55.008,0.047,93.626
				c3.032,9.86,5.662,18.876,8.205,27.594c10.849,37.197,18.017,61.771,34.581,74.704c16.458,12.85,42.958,14.24,91.47,4.794
				c40.77-7.938,78.63-5.862,112.034-4.03c27.285,1.495,50.85,2.788,67.634-2.378c18.134-5.581,26.933-18.111,28.529-40.625
				c3.302-46.555,10.663-73.507,16.578-95.163c5.744-21.032,9.894-36.228,6.494-58.201c-5.092-32.908-34.622-47.289-65.885-62.513
				c-10.284-5.008-20.919-10.187-30.944-16.147c-6.041-3.592-12.21-7.79-18.742-12.236C294.462,39.778,268.34,22.001,235.057,22.001
				z"/>
		</g>
		<path id="XMLID_504_" style="fill:#F2F1F7;" d="M171.206,55.547C63.975,129.528,53.898,179.443,74.99,248.028
			c29.464,95.81,25.888,128.966,135.23,107.676c109.454-21.311,203.361,30.04,208.883-47.807
			c6.602-93.081,29.91-109.313,23.064-153.555c-6.846-44.242-56.645-55.129-97.234-79.261S255.319-2.485,171.206,55.547z"/>
	</g>
	<g id="XMLID_1088_">
		<g id="XMLID_709_">
			<g id="XMLID_712_">
				<path style="fill:#FFFFFF;" d="M413.632,196.465c3.224,0.141,5.841-2.586,5.573-5.802c-2.849-34.167-3.666-55.788,0.516-91.117
					c-55.746,3.576-88.388,4.624-145.414,0c2.468,34.102,3.16,56.287,0.487,91.143C273.888,202.483,284.746,190.821,413.632,196.465
					z"/>
				<path style="fill:#EEE4D9;" d="M413.866,197.036c-0.086,0-0.172-0.002-0.259-0.006c-62.944-2.756-97.936-1.375-116.734-0.633
					c-14.263,0.564-19.6,0.773-21.665-1.369c-1.072-1.113-1.105-2.764-0.981-4.383c2.671-34.812,1.971-57.099-0.487-91.058
					l-0.048-0.659l0.659,0.053c57.856,4.691,90.174,3.538,145.332-0.001l0.679-0.043l-0.08,0.675
					c-4.067,34.36-3.445,55.843-0.514,91.003c0.142,1.697-0.454,3.374-1.635,4.602C417.015,196.382,415.471,197.036,413.866,197.036
					z M344.545,194.255c18.09,0,40.768,0.403,69.111,1.644c1.37,0.065,2.707-0.474,3.66-1.466c0.955-0.993,1.437-2.35,1.323-3.723
					c-2.919-35.008-3.553-56.49,0.438-90.555c-54.594,3.495-86.876,4.625-144.16,0.009c2.423,33.647,3.098,55.91,0.439,90.568
					c-0.144,1.878,0.043,2.863,0.667,3.51c1.713,1.778,7.301,1.557,20.805,1.023C307.177,194.857,322.432,194.255,344.545,194.255z"
					/>
			</g>
			<g id="XMLID_711_">
				<path style="fill:#444244;" d="M414.126,94.114c2.943-0.129,5.594,2.165,5.594,5.432c-56.597,3.431-88.125,4.771-145.414,0
					C274.305,88.404,278.696,100.062,414.126,94.114z"/>
				<path style="fill:#444244;" d="M342.217,103.223c-20.256,0-41.313-0.894-67.959-3.113l-0.52-0.043v-0.521
					c0-1.744,0.083-3.268,1.107-4.249c1.784-1.708,5.826-1.533,17.836-1.014c18.435,0.798,52.749,2.281,121.419-0.735
					c1.606-0.073,3.196,0.526,4.358,1.638c1.178,1.128,1.827,2.676,1.827,4.36v0.533l-0.532,0.032
					C389.598,101.939,366.483,103.223,342.217,103.223z M274.875,99.024c57.96,4.802,89.485,3.306,144.251-0.01
					c-0.118-1.163-0.623-2.217-1.451-3.01c-0.939-0.898-2.223-1.381-3.524-1.324c-68.719,3.019-103.066,1.534-121.518,0.735
					c-11.011-0.476-15.568-0.673-17.003,0.7C275.054,96.667,274.901,97.549,274.875,99.024z"/>
			</g>
			<g id="XMLID_1139_">
				<path id="XMLID_1143_" style="fill:#BEC0C2;" d="M411.756,98.94c2.018-0.138,2.76-0.021,2.71-0.755
					c-0.097-1.416,0.005-2.207-0.717-2.158c-2.018,0.138-2.76,0.021-2.71,0.755C411.136,98.199,411.034,98.989,411.756,98.94z"/>
				<g id="XMLID_1140_">
					<g id="XMLID_1142_">
						<path style="fill:#FFFFFF;" d="M411.841,98.639c-0.075,0-0.149-0.029-0.205-0.088c-0.108-0.113-0.104-0.292,0.009-0.4
							l1.825-1.744c0.113-0.108,0.293-0.104,0.401,0.009c0.108,0.113,0.104,0.292-0.009,0.4l-1.825,1.744
							C411.982,98.613,411.911,98.639,411.841,98.639z"/>
					</g>
					<g id="XMLID_1141_">
						<path style="fill:#FFFFFF;" d="M413.775,98.507c-0.058,0-0.116-0.017-0.166-0.054l-2.044-1.48
							c-0.127-0.091-0.156-0.269-0.064-0.396c0.092-0.127,0.271-0.155,0.396-0.063l2.044,1.48c0.127,0.091,0.155,0.269,0.064,0.396
							C413.949,98.466,413.862,98.507,413.775,98.507z"/>
					</g>
				</g>
			</g>
		</g>
		<g id="XMLID_1085_" style="opacity:0.7;">
			<g id="XMLID_780_" style="opacity:0.8;">
				<path id="XMLID_814_" style="fill:#D6723A;" d="M312.25,116.668c-23.319,0-24.171,0.656-24.171-1.759
					c0-1.82-0.356-4.116,1.759-4.116c23.319,0,24.171-0.656,24.171,1.759C314.009,114.371,314.364,116.668,312.25,116.668z"/>
				<path id="XMLID_778_" style="fill:#D6723A;" d="M369.648,116.668c-47.095,0-46.932,0.917-46.932-2.426
					c0-1.66,0.253-3.448,2.426-3.448h44.505C372.921,110.793,373,116.668,369.648,116.668z"/>
				<path id="XMLID_779_" style="fill:#D6723A;" d="M404.187,116.668c-23.319,0-24.171,0.656-24.171-1.759
					c0-1.82-0.356-4.116,1.759-4.116c23.319,0,24.171-0.656,24.171,1.759C405.946,114.371,406.302,116.668,404.187,116.668z"/>
			</g>
			<g id="XMLID_781_" style="opacity:0.8;">
				<path id="XMLID_784_" style="fill:#D6723A;" d="M369.648,124.982h-44.505c-3.273,0-3.352-5.875,0-5.875h44.505
					C372.921,119.108,373,124.982,369.648,124.982z"/>
			</g>
			<g id="XMLID_787_" style="opacity:0.8;">
				<path id="XMLID_795_" style="fill:#D6723A;" d="M312.25,133.297c-23.319,0-24.171,0.656-24.171-1.759
					c0-1.82-0.356-4.116,1.759-4.116c23.319,0,24.171-0.656,24.171,1.759v2.357C314.009,132.509,313.221,133.297,312.25,133.297z"/>
				<path id="XMLID_794_" style="fill:#D6723A;" d="M369.648,133.297h-44.505c-3.273,0-3.352-5.875,0-5.875
					c47.095,0,46.932-0.917,46.932,2.426C372.074,131.508,371.822,133.297,369.648,133.297z"/>
				<path id="XMLID_788_" style="fill:#D6723A;" d="M404.187,133.297c-23.319,0-24.171,0.656-24.171-1.759
					c0-1.82-0.356-4.116,1.759-4.116c23.319,0,24.171-0.656,24.171,1.759C405.946,131,406.302,133.297,404.187,133.297z"/>
			</g>
			<g id="XMLID_809_" style="opacity:0.8;">
				<path id="XMLID_812_" style="fill:#D6723A;" d="M312.25,141.611c-23.319,0-24.171,0.656-24.171-1.758
					c0-1.82-0.356-4.116,1.759-4.116h22.413c0.971,0,1.759,0.787,1.759,1.759v2.357C314.009,140.824,313.221,141.611,312.25,141.611
					z"/>
				<path id="XMLID_810_" style="fill:#D6723A;" d="M404.187,141.611c-23.319,0-24.171,0.656-24.171-1.758
					c0-1.82-0.356-4.116,1.759-4.116c23.319,0,24.171-0.656,24.171,1.759C405.946,139.315,406.302,141.611,404.187,141.611z"/>
			</g>
			<g id="XMLID_813_" style="opacity:0.8;">
				<path id="XMLID_817_" style="fill:#D6723A;" d="M312.25,149.926h-22.413c-0.971,0-1.759-0.787-1.759-1.758v-2.357
					c0-0.971,0.787-1.759,1.759-1.759h22.413c0.971,0,1.759,0.787,1.759,1.759v2.357
					C314.009,149.139,313.221,149.926,312.25,149.926z"/>
				<path id="XMLID_816_" style="fill:#D6723A;" d="M369.648,149.926h-44.505c-3.273,0-3.352-5.874,0-5.874h44.505
					c2.989,0,2.426,4.015,2.426,3.448C372.074,148.84,370.988,149.926,369.648,149.926z"/>
				<path id="XMLID_815_" style="fill:#D6723A;" d="M404.187,149.926c-23.319,0-24.171,0.656-24.171-1.758
					c0-1.82-0.356-4.116,1.759-4.116c23.319,0,24.171-0.656,24.171,1.759C405.946,147.63,406.302,149.926,404.187,149.926z"/>
			</g>
			<g id="XMLID_818_" style="opacity:0.8;">
				<path id="XMLID_1063_" style="fill:#D6723A;" d="M312.25,158.24h-22.413c-0.971,0-1.759-0.787-1.759-1.758v-2.357
					c0-0.971,0.787-1.759,1.759-1.759c23.319,0,24.171-0.656,24.171,1.759v2.357C314.009,157.453,313.221,158.24,312.25,158.24z"/>
				<path id="XMLID_850_" style="fill:#D6723A;" d="M369.648,158.24h-44.505c-3.273,0-3.352-5.874,0-5.874h44.505
					c2.989,0,2.426,4.015,2.426,3.448C372.074,157.154,370.988,158.24,369.648,158.24z"/>
			</g>
			<g id="XMLID_1067_" style="opacity:0.8;">
				<path id="XMLID_1070_" style="fill:#D6723A;" d="M312.25,166.555h-22.413c-0.971,0-1.759-0.787-1.759-1.758v-2.357
					c0-0.971,0.787-1.759,1.759-1.759h22.413c0.971,0,1.759,0.787,1.759,1.759v2.357
					C314.009,165.768,313.221,166.555,312.25,166.555z"/>
				<path id="XMLID_1068_" style="fill:#D6723A;" d="M404.187,166.555h-22.412c-0.971,0-1.759-0.787-1.759-1.758v-2.357
					c0-0.971,0.787-1.759,1.759-1.759h22.412c0.971,0,1.759,0.787,1.759,1.759v2.357
					C405.946,165.768,405.159,166.555,404.187,166.555z"/>
			</g>
			<g id="XMLID_1071_" style="opacity:0.8;">
				<path id="XMLID_1075_" style="fill:#D6723A;" d="M312.25,174.87h-22.413c-0.971,0-1.759-0.787-1.759-1.758v-2.357
					c0-0.971,0.787-1.759,1.759-1.759h22.413c0.971,0,1.759,0.787,1.759,1.759v2.357C314.009,174.082,313.221,174.87,312.25,174.87z
					"/>
				<path id="XMLID_1074_" style="fill:#D6723A;" d="M369.648,174.87h-44.505c-3.273,0-3.352-5.875,0-5.875h44.505
					c2.989,0,2.426,4.015,2.426,3.448C372.074,173.783,370.988,174.87,369.648,174.87z"/>
			</g>
			<g id="XMLID_1076_" style="opacity:0.8;">
				<path id="XMLID_1083_" style="fill:#D6723A;" d="M312.25,183.184h-22.413c-0.971,0-1.759-0.787-1.759-1.759v-2.357
					c0-0.971,0.787-1.759,1.759-1.759h22.413c0.971,0,1.759,0.787,1.759,1.759v2.357
					C314.009,182.397,313.221,183.184,312.25,183.184z"/>
				<path id="XMLID_1081_" style="fill:#D6723A;" d="M369.648,183.184h-44.505c-3.273,0-3.352-5.874,0-5.874
					c47.095,0,46.932-0.917,46.932,2.426v1.022C372.074,182.098,370.988,183.184,369.648,183.184z"/>
				<path id="XMLID_1079_" style="fill:#D6723A;" d="M404.187,183.184h-22.412c-0.971,0-1.759-0.787-1.759-1.759v-2.357
					c0-0.971,0.787-1.759,1.759-1.759h22.412c0.971,0,1.759,0.787,1.759,1.759v2.357
					C405.946,182.397,405.159,183.184,404.187,183.184z"/>
			</g>
		</g>
	</g>
	<g id="XMLID_1094_">
		<g id="XMLID_1100_">
			<path id="XMLID_1114_" style="fill:#58857A;" d="M372.889,216.505c15.895-12.346,29.365-53.668,27.844-77.901
				c-1.521-24.233-25.899,10.199-29.109,42.049C368.415,212.503,372.889,216.505,372.889,216.505z"/>
			<path id="XMLID_1113_" style="fill:#76A699;" d="M362.29,264.42c1.692-9.543,11.806-34.21,29.499-38.473
				c21.135-5.092,9.544,12.939-2.305,23.436C377.634,259.88,362.29,264.42,362.29,264.42z"/>
			<path id="XMLID_1112_" style="fill:#76A699;" d="M376.106,219.169c15.264-3.429,38.188-16.585,46.28-34.926
				c8.092-18.341-16.692-14.071-31.695,4.757C375.688,207.829,376.106,219.169,376.106,219.169z"/>
			<path id="XMLID_1111_" style="fill:#58857A;" d="M360.042,247.164c2.578-5.851,13.588-27.001,4.045-48.216
				c-7.292-16.211-15.157-0.032-11.743,16.797C355.759,232.574,360.042,247.164,360.042,247.164z"/>
			<g id="XMLID_1109_">
				<path id="XMLID_1110_" style="fill:#76A699;" d="M354.099,271.319c0,0,13.241-40.812,4.003-65.489
					c-0.209-0.553,0.629-0.856,0.831-0.311c8.116,21.68-0.544,53.745-3.364,62.988c11.791-19.095,33.422-120.763,31.333-110.034
					C375.463,216.895,358.41,273.969,354.099,271.319z"/>
			</g>
			<g id="XMLID_1107_">
				<path id="XMLID_1108_" style="fill:#58857A;" d="M356.1,273.175c-1.319-0.836,20.644-29.309,30.617-34.97
					c0.508-0.288,0.95,0.479,0.439,0.772C376.633,244.949,356.1,273.175,356.1,273.175z"/>
			</g>
			<g id="XMLID_1105_">
				<path id="XMLID_1106_" style="fill:#58857A;" d="M369.636,229.262c-1.669-0.883,22.786-34.839,42.877-45.045
					c0.527-0.266,0.922,0.529,0.401,0.792c-17.09,8.682-37.928,35.16-42.678,44.071C370.117,229.303,369.84,229.375,369.636,229.262
					z"/>
			</g>
		</g>
		<g id="XMLID_1098_">
			<path id="XMLID_1099_" style="fill:#58857A;" d="M379.06,209.87c2.646-2.528,9.666-16.395,10.863-20.061
				c0.076-0.233,0.326-0.36,0.559-0.284c1.321,0.474-8.026,18.327-10.81,20.987C379.248,210.917,378.636,210.273,379.06,209.87z"/>
		</g>
	</g>
	<g id="XMLID_1101_">
		<g id="XMLID_1104_">
			<path id="XMLID_1125_" style="fill:#58857A;" d="M150.083,165.436c-15.895-12.346-29.365-53.668-27.844-77.901
				c1.521-24.233,25.899,10.199,29.109,42.049C154.558,161.435,150.083,165.436,150.083,165.436z"/>
			<path id="XMLID_1124_" style="fill:#76A699;" d="M160.682,213.351c-1.692-9.543-11.805-34.21-29.499-38.473
				c-21.135-5.092-9.544,12.939,2.305,23.436C145.338,208.811,160.682,213.351,160.682,213.351z"/>
			<path id="XMLID_1123_" style="fill:#76A699;" d="M146.867,168.1c-15.264-3.429-38.188-16.584-46.28-34.926
				c-8.092-18.341,16.692-14.071,31.695,4.757C147.285,156.76,146.867,168.1,146.867,168.1z"/>
			<path id="XMLID_1122_" style="fill:#58857A;" d="M162.93,196.096c-2.578-5.851-13.588-27.001-4.045-48.215
				c7.292-16.211,15.157-0.032,11.743,16.797C167.213,181.506,162.93,196.096,162.93,196.096z"/>
			<g id="XMLID_1119_">
				<path id="XMLID_1120_" style="fill:#76A699;" d="M168.874,220.25c0,0-13.241-40.812-4.003-65.489
					c0.209-0.553-0.629-0.856-0.831-0.311c-8.116,21.68,0.544,53.745,3.364,62.988c-11.791-19.095-33.422-120.763-31.333-110.034
					c6.074,31.02,22.628,102.482,32.25,112.769C168.469,220.33,168.703,220.355,168.874,220.25z"/>
			</g>
			<g id="XMLID_1117_">
				<path id="XMLID_1118_" style="fill:#58857A;" d="M166.872,222.106c1.319-0.836-20.644-29.309-30.617-34.97
					c-0.508-0.288-0.95,0.479-0.439,0.772c7.705,4.373,23.934,23.737,30.443,34.058
					C166.396,222.181,166.674,222.232,166.872,222.106z"/>
			</g>
			<g id="XMLID_1115_">
				<path id="XMLID_1116_" style="fill:#58857A;" d="M153.519,177.594c-11.151-20.924-42.19-47.15-43.655-44.25
					c-0.111,0.219-0.024,0.486,0.195,0.597c17.09,8.682,37.928,35.16,42.678,44.071
					C153.013,178.529,153.796,178.111,153.519,177.594z"/>
			</g>
		</g>
		<g id="XMLID_1102_">
			<path id="XMLID_1103_" style="fill:#58857A;" d="M143.912,158.801c-2.646-2.528-9.666-16.395-10.863-20.061
				c-0.184-0.563-1.022-0.274-0.843,0.275c1.246,3.823,8.307,17.764,11.094,20.428C143.724,159.848,144.336,159.204,143.912,158.801
				z"/>
		</g>
	</g>
	<g id="XMLID_866_">
		<g id="XMLID_385_">
			<g id="XMLID_314_">
				<path style="fill:#FFFFFF;" d="M287.192,165.229c-55.702,14.651-89.446,14.484-143.242,0.015
					c-5.075-1.365-3.67,2.323-3.67-103.27c55.113,15.75,90.852,17.051,150.61,0v98.465
					C290.89,162.689,289.368,164.656,287.192,165.229z"/>
				<path style="fill:#EEE4D9;" d="M215.075,176.754c-22.128,0-44.096-3.654-71.272-10.963c-0.152-0.041-0.298-0.077-0.438-0.112
					c-3.951-0.98-3.951-0.98-3.771-48.986c0.053-14.109,0.119-31.668,0.119-54.72v-0.751l0.722,0.206
					c57.545,16.445,92.661,16.445,150.298,0l0.722-0.206v99.216c0,2.504-1.694,4.699-4.12,5.338
					C259.514,173.095,237.214,176.754,215.075,176.754z M140.847,62.724c-0.001,22.686-0.066,40.017-0.119,53.974
					c-0.175,46.675-0.148,47.122,2.91,47.881c0.147,0.036,0.3,0.074,0.46,0.117c54.143,14.562,87.542,14.558,142.951-0.016
					c1.928-0.507,3.275-2.252,3.275-4.242V62.724c-30.083,8.537-53.707,12.275-76.484,12.117
					C192.034,74.688,170.169,71.061,140.847,62.724z"/>
			</g>
			<g id="XMLID_319_">
				<path style="fill:#444244;" d="M284.773,56.979c-53.511,13.031-87.152,14.06-138.25,0.22c-3.145-0.852-6.243,1.517-6.243,4.775
					c58.485,16.525,91.719,16.286,150.61,0C290.89,58.343,287.724,56.26,284.773,56.979z"/>
				<path style="fill:#444244;" d="M215.114,74.789c-23.098,0.001-46.032-4.089-74.988-12.271l-0.413-0.117v-0.429
					c0-1.73,0.788-3.326,2.163-4.378c1.375-1.052,3.123-1.396,4.794-0.944c49.116,13.303,82.641,13.249,137.968-0.224
					c1.632-0.396,3.39-0.017,4.705,1.015c1.362,1.07,2.112,2.679,2.112,4.53v0.431l-0.415,0.115
					C261.464,70.699,238.206,74.788,215.114,74.789z M140.867,61.55c57.264,16.132,90.93,16.131,149.44-0.004
					c-0.103-1.314-0.684-2.444-1.663-3.213c-1.043-0.819-2.438-1.121-3.737-0.805c-55.541,13.524-89.203,13.577-138.532,0.217
					c-1.329-0.36-2.717-0.086-3.809,0.75C141.586,59.245,140.982,60.341,140.867,61.55z"/>
			</g>
			<g id="XMLID_1132_">
				<path id="XMLID_1136_" style="fill:#BEC0C2;" d="M283.751,62.152c1.897-0.701,2.643-0.798,2.388-1.488
					c-0.492-1.332-0.617-2.119-1.296-1.868c-1.897,0.701-2.643,0.798-2.388,1.488C282.947,61.615,283.072,62.402,283.751,62.152z"/>
				<g id="XMLID_1133_">
					<g id="XMLID_1135_">
						<path style="fill:#FFFFFF;" d="M283.668,61.85c-0.048,0-0.097-0.012-0.141-0.038c-0.135-0.078-0.182-0.251-0.104-0.387
							l1.259-2.187c0.078-0.136,0.252-0.182,0.387-0.104c0.135,0.078,0.183,0.251,0.105,0.387l-1.259,2.187
							C283.861,61.799,283.766,61.85,283.668,61.85z"/>
					</g>
					<g id="XMLID_1134_">
						<path style="fill:#FFFFFF;" d="M285.487,61.179c-0.031,0-0.064-0.005-0.095-0.016l-2.379-0.844
							c-0.148-0.052-0.225-0.214-0.173-0.361c0.053-0.147,0.217-0.223,0.362-0.172l2.379,0.844c0.148,0.052,0.225,0.214,0.173,0.362
							C285.712,61.106,285.603,61.179,285.487,61.179z"/>
					</g>
				</g>
			</g>
		</g>
		<g id="XMLID_865_">
			<g id="XMLID_776_">
				<path style="fill:#444244;" d="M162.269,110.382h1.81v6.43c0,2.737-1.324,3.649-3.296,3.649c-0.5,0-1.133-0.088-1.516-0.235
					l0.221-1.456c0.294,0.088,0.692,0.176,1.118,0.176c1.03,0,1.663-0.471,1.663-2.192V110.382z"/>
				<path style="fill:#444244;" d="M169.978,120.299l-0.118-0.794c-0.486,0.559-1.236,0.956-2.163,0.956
					c-1.442,0-2.251-1.045-2.251-2.133c0-1.81,1.604-2.722,4.252-2.707v-0.118c0-0.471-0.191-1.251-1.456-1.251
					c-0.706,0-1.442,0.221-1.928,0.53l-0.353-1.177c0.529-0.324,1.456-0.633,2.59-0.633c2.295,0,2.957,1.457,2.957,3.016v2.59
					c0,0.647,0.03,1.28,0.103,1.721H169.978z M169.742,116.797c-1.28-0.029-2.501,0.25-2.501,1.339c0,0.706,0.456,1.03,1.03,1.03
					c0.721,0,1.251-0.471,1.413-0.986c0.044-0.132,0.059-0.28,0.059-0.397V116.797z"/>
				<path style="fill:#444244;" d="M174.419,113.133l1.162,3.634c0.206,0.633,0.353,1.206,0.485,1.795
					c0.176-0.589,0.338-1.148,0.53-1.795l1.133-3.634h1.913l-2.737,7.165h-1.78l-2.663-7.165H174.419z"/>
				<path style="fill:#444244;" d="M184.687,120.299l-0.118-0.794c-0.485,0.559-1.236,0.956-2.163,0.956
					c-1.442,0-2.251-1.045-2.251-2.133c0-1.81,1.604-2.722,4.252-2.707v-0.118c0-0.471-0.191-1.251-1.456-1.251
					c-0.706,0-1.442,0.221-1.928,0.53l-0.353-1.177c0.529-0.324,1.456-0.633,2.59-0.633c2.295,0,2.957,1.457,2.957,3.016v2.59
					c0,0.647,0.03,1.28,0.103,1.721H184.687z M184.452,116.797c-1.28-0.029-2.501,0.25-2.501,1.339c0,0.706,0.456,1.03,1.03,1.03
					c0.721,0,1.251-0.471,1.413-0.986c0.044-0.132,0.059-0.28,0.059-0.397V116.797z"/>
				<path style="fill:#444244;" d="M191.202,118.327c0.588,0.338,1.471,0.633,2.398,0.633c1.162,0,1.81-0.545,1.81-1.354
					c0-0.751-0.5-1.192-1.766-1.648c-1.633-0.589-2.678-1.457-2.678-2.884c0-1.619,1.354-2.854,3.502-2.854
					c1.074,0,1.869,0.235,2.384,0.5l-0.441,1.457c-0.353-0.191-1.045-0.471-1.972-0.471c-1.148,0-1.648,0.618-1.648,1.192
					c0,0.765,0.574,1.118,1.898,1.633c1.721,0.647,2.56,1.515,2.56,2.943c0,1.589-1.207,2.972-3.767,2.972
					c-1.045,0-2.133-0.294-2.678-0.618L191.202,118.327z"/>
				<path style="fill:#444244;" d="M204.163,120.078c-0.383,0.176-1.133,0.368-2.031,0.368c-2.237,0-3.693-1.427-3.693-3.649
					c0-2.148,1.471-3.825,3.987-3.825c0.662,0,1.339,0.147,1.751,0.338l-0.324,1.354c-0.294-0.132-0.721-0.279-1.368-0.279
					c-1.383,0-2.207,1.015-2.192,2.325c0,1.471,0.956,2.31,2.192,2.31c0.633,0,1.074-0.132,1.427-0.28L204.163,120.078z"/>
				<path style="fill:#444244;" d="M205.499,115.443c0-0.971-0.015-1.663-0.059-2.31h1.574l0.059,1.368h0.059
					c0.353-1.015,1.192-1.53,1.957-1.53c0.176,0,0.28,0.015,0.427,0.044v1.707c-0.147-0.029-0.309-0.059-0.53-0.059
					c-0.868,0-1.457,0.559-1.619,1.369c-0.029,0.162-0.059,0.353-0.059,0.559v3.708h-1.81V115.443z"/>
				<path style="fill:#444244;" d="M212.663,111.132c0,0.544-0.397,0.971-1.03,0.971c-0.603,0-1.001-0.427-1.001-0.971
					c0-0.559,0.412-0.986,1.015-0.986C212.266,110.147,212.649,110.573,212.663,111.132z M210.736,120.299v-7.165h1.825v7.165
					H210.736z"/>
				<path style="fill:#444244;" d="M214.501,115.517c0-0.942-0.029-1.707-0.059-2.383h1.589l0.088,1.104
					c0.559-0.81,1.398-1.265,2.487-1.265c1.648,0,3.016,1.413,3.016,3.649c0,2.59-1.633,3.84-3.267,3.84
					c-0.897,0-1.648-0.383-2.016-0.956c-0.03,0-0.03,3.708-0.03,3.708h-1.81V115.517z M216.311,117.297
					c0,0.176,0.015,0.338,0.059,0.5c0.176,0.736,0.824,1.265,1.589,1.265c1.148,0,1.825-0.956,1.825-2.369
					c0-1.265-0.618-2.295-1.78-2.295c-0.75,0-1.442,0.544-1.619,1.339c-0.044,0.147-0.074,0.309-0.074,0.456V117.297z"/>
				<path style="fill:#444244;" d="M225.181,111.088v2.045h1.721v1.354h-1.721v3.163c0,0.868,0.235,1.324,0.927,1.324
					c0.309,0,0.544-0.044,0.706-0.088l0.029,1.383c-0.265,0.103-0.736,0.176-1.31,0.176c-0.662,0-1.221-0.221-1.56-0.589
					c-0.382-0.412-0.559-1.059-0.559-2.001v-3.369h-1.03v-1.354h1.03v-1.619L225.181,111.088z"/>
			</g>
			<g id="XMLID_864_">
				<path id="XMLID_857_" style="fill:#514342;" d="M148.314,141.242c3.745,0,5.508-0.378,5.508,1.281
					c0,3.745,0.377,5.508-1.281,5.508c-3.745,0-5.508,0.378-5.508-1.281C147.033,143.005,146.655,141.242,148.314,141.242z"/>
				<path id="XMLID_856_" style="fill:#514342;" d="M148.314,126.312c3.745,0,5.508-0.378,5.508,1.281
					c0,3.745,0.377,5.508-1.281,5.508c-3.745,0-5.508,0.378-5.508-1.281C147.033,128.075,146.655,126.312,148.314,126.312z"/>
				<path id="XMLID_854_" style="fill:#514342;" d="M148.314,110.413c3.745,0,5.508-0.377,5.508,1.281
					c0,3.745,0.377,5.508-1.281,5.508c-3.745,0-5.508,0.377-5.508-1.281C147.033,112.175,146.655,110.413,148.314,110.413z"/>
				<path id="XMLID_853_" style="fill:#514342;" d="M148.314,97.385c3.745,0,5.508-0.378,5.508,1.281
					c0,3.745,0.377,5.508-1.281,5.508c-3.745,0-5.508,0.377-5.508-1.281v-4.227C147.033,97.959,147.606,97.385,148.314,97.385z"/>
				<path id="XMLID_852_" style="fill:#514342;" d="M148.314,82.146c3.745,0,5.508-0.378,5.508,1.281
					c0,3.745,0.377,5.508-1.281,5.508c-3.745,0-5.508,0.377-5.508-1.281C147.033,83.909,146.655,82.146,148.314,82.146z"/>
			</g>
			<g id="XMLID_877_" style="opacity:0.8;">
				<path id="XMLID_858_" style="fill:#514342;" d="M163.293,82.146c39.108,0,39.243-0.74,39.243,1.935
					c0,2.285,0.417,4.854-1.935,4.854c-39.108,0-39.243,0.739-39.243-1.935C161.358,84.715,160.941,82.146,163.293,82.146z"/>
				<path id="XMLID_859_" style="fill:#514342;" d="M208.476,82.146c23.61,0,24.764-0.715,24.764,1.935
					c0,2.285,0.417,4.854-1.935,4.854c-23.61,0-24.764,0.715-24.764-1.935C206.541,84.715,206.124,82.146,208.476,82.146z"/>
				<path id="XMLID_860_" style="fill:#514342;" d="M240.061,82.146c24.776,0,25.754-0.7,25.754,1.935
					c0,2.285,0.417,4.854-1.935,4.854c-24.776,0-25.754,0.7-25.754-1.935C238.126,84.715,237.709,82.146,240.061,82.146z"/>
			</g>
			<g id="XMLID_878_" style="opacity:0.8;">
				<path id="XMLID_863_" style="fill:#514342;" d="M163.293,97.385c39.108,0,39.243-0.74,39.243,1.935
					c0,2.285,0.417,4.854-1.935,4.854c-39.108,0-39.243,0.74-39.243-1.935V99.32C161.358,98.252,162.224,97.385,163.293,97.385z"/>
				<path id="XMLID_862_" style="fill:#514342;" d="M208.476,97.385c23.61,0,24.764-0.715,24.764,1.935
					c0,2.285,0.417,4.854-1.935,4.854c-23.61,0-24.764,0.715-24.764-1.935C206.541,99.954,206.124,97.385,208.476,97.385z"/>
				<path id="XMLID_861_" style="fill:#514342;" d="M240.061,97.385c24.776,0,25.754-0.7,25.754,1.935
					c0,2.285,0.417,4.854-1.935,4.854c-24.776,0-25.754,0.7-25.754-1.935C238.126,99.954,237.709,97.385,240.061,97.385z"/>
			</g>
			<g id="XMLID_880_" style="opacity:0.8;">
				<path id="XMLID_873_" style="fill:#514342;" d="M163.293,126.312c39.108,0,39.243-0.74,39.243,1.935
					c0,2.285,0.417,4.854-1.935,4.854c-39.108,0-39.243,0.74-39.243-1.935C161.358,128.881,160.941,126.312,163.293,126.312z"/>
				<path id="XMLID_869_" style="fill:#514342;" d="M208.476,126.312c23.61,0,24.764-0.715,24.764,1.935
					c0,2.285,0.417,4.854-1.935,4.854c-23.61,0-24.764,0.715-24.764-1.935C206.541,128.881,206.124,126.312,208.476,126.312z"/>
				<path id="XMLID_868_" style="fill:#514342;" d="M240.061,126.312c24.776,0,25.754-0.7,25.754,1.935
					c0,2.285,0.417,4.854-1.935,4.854c-24.776,0-25.754,0.7-25.754-1.935v-2.919C238.126,127.179,238.992,126.312,240.061,126.312z"
					/>
			</g>
			<g id="XMLID_881_" style="opacity:0.8;">
				<path id="XMLID_876_" style="fill:#514342;" d="M163.293,141.242c39.108,0,39.243-0.74,39.243,1.935
					c0,2.285,0.417,4.854-1.935,4.854c-39.108,0-39.243,0.74-39.243-1.935v-2.919C161.358,142.109,162.224,141.242,163.293,141.242z
					"/>
				<path id="XMLID_875_" style="fill:#514342;" d="M208.476,141.242c23.61,0,24.764-0.715,24.764,1.935
					c0,2.285,0.417,4.854-1.935,4.854c-23.61,0-24.764,0.715-24.764-1.935v-2.919C206.541,142.109,207.407,141.242,208.476,141.242z
					"/>
				<path id="XMLID_874_" style="fill:#514342;" d="M240.061,141.242c24.776,0,25.754-0.7,25.754,1.935
					c0,2.285,0.417,4.854-1.935,4.854c-24.776,0-25.754,0.7-25.754-1.935C238.126,143.811,237.709,141.242,240.061,141.242z"/>
			</g>
		</g>
	</g>
	<g id="XMLID_899_">
		<g id="XMLID_560_">
			<g id="XMLID_517_">
				<path style="fill:#FFFFFF;" d="M73.24,239.112c-12.931,0.566,2.774-21.325-6.018-96.309c-0.037-0.316,0.224-0.591,0.541-0.571
					c55.18,3.532,87.757,4.561,144.207,0.009c0.311-0.025,0.574,0.236,0.551,0.547c-2.433,33.766-3.102,55.895-0.444,90.547
					C212.982,245.13,202.123,233.469,73.24,239.112z"/>
				<path style="fill:#EEE4D9;" d="M72.767,239.689c-1.721,0-2.938-0.426-3.803-1.325c-2.236-2.325-1.791-7.71-0.983-17.486
					c1.21-14.645,3.235-39.156-1.321-78.009c-0.037-0.318,0.068-0.635,0.29-0.868c0.221-0.233,0.534-0.353,0.85-0.335
					c56.706,3.631,89.264,4.434,144.125,0.009c0.314-0.029,0.621,0.088,0.845,0.31c0.224,0.222,0.34,0.529,0.317,0.843
					c-2.423,33.629-3.107,55.743-0.444,90.463c0.124,1.619,0.091,3.27-0.981,4.383c-2.065,2.144-7.403,1.932-21.667,1.37
					c-18.799-0.742-53.789-2.122-116.73,0.633C73.095,239.686,72.928,239.689,72.767,239.689z M67.793,142.802
					c4.559,38.929,2.53,63.49,1.317,78.169c-0.781,9.448-1.211,14.652,0.671,16.608c0.704,0.732,1.798,1.039,3.435,0.968
					c62.989-2.758,98.01-1.376,116.824-0.633c13.505,0.533,19.094,0.754,20.806-1.024c0.624-0.648,0.811-1.632,0.667-3.51
					c-2.667-34.771-1.984-56.917,0.439-90.568C157.077,147.234,124.497,146.431,67.793,142.802z"/>
			</g>
			<g id="XMLID_518_">
				<path style="fill:#444244;" d="M206.905,136.845c-119.477,6.785-139.755-7.06-139.755,5.348
					c56.597,3.431,88.125,4.771,145.414,0C212.565,139.117,209.978,136.67,206.905,136.845z"/>
				<path style="fill:#444244;" d="M144.653,145.871c-24.27,0-47.378-1.284-77.537-3.112l-0.532-0.032v-0.533
					c0-1.853,0.445-3.138,1.401-4.044c2.592-2.457,8.69-2.133,23.425-1.35c19.189,1.02,54.906,2.919,115.464-0.52
					c1.641-0.094,3.206,0.478,4.403,1.608c1.197,1.131,1.856,2.66,1.856,4.306v0.521l-0.52,0.043
					C185.969,144.977,164.907,145.871,144.653,145.871z M67.731,141.661c54.766,3.317,86.29,4.813,144.24,0.013
					c-0.12-1.131-0.633-2.169-1.474-2.963c-0.967-0.914-2.228-1.377-3.56-1.3c-60.62,3.442-96.378,1.541-115.588,0.52
					c-13.547-0.72-20.347-1.082-22.585,1.041C68.127,139.576,67.8,140.418,67.731,141.661z"/>
			</g>
			<g id="XMLID_1127_">
				<path id="XMLID_1131_" style="fill:#BEC0C2;" d="M205.095,141.573c2.018-0.138,2.76-0.021,2.71-0.755
					c-0.097-1.416,0.006-2.207-0.717-2.158c-2.018,0.138-2.76,0.021-2.71,0.755l0.111,1.629
					C204.511,141.358,204.782,141.594,205.095,141.573z"/>
				<g id="XMLID_1128_">
					<g id="XMLID_1130_">
						<path style="fill:#FFFFFF;" d="M205.18,141.272c-0.075,0-0.149-0.029-0.205-0.087c-0.108-0.113-0.104-0.292,0.009-0.401
							l1.824-1.744c0.114-0.109,0.292-0.104,0.4,0.009c0.108,0.113,0.104,0.292-0.009,0.401l-1.824,1.744
							C205.321,141.246,205.25,141.272,205.18,141.272z"/>
					</g>
					<g id="XMLID_1129_">
						<path style="fill:#FFFFFF;" d="M207.114,141.14c-0.058,0-0.116-0.017-0.166-0.054l-2.044-1.48
							c-0.127-0.092-0.155-0.269-0.063-0.396c0.092-0.127,0.268-0.156,0.396-0.063l2.044,1.48c0.127,0.092,0.155,0.269,0.063,0.396
							C207.288,141.1,207.201,141.14,207.114,141.14z"/>
					</g>
				</g>
			</g>
		</g>
		<g id="XMLID_898_">
			<g id="XMLID_882_">
				<path style="fill:#D6723A;" d="M84.148,181.697c0.863-0.157,2.06-0.275,3.689-0.275c1.766,0,3.061,0.373,3.905,1.079
					c0.785,0.648,1.295,1.688,1.295,2.924c0,1.256-0.392,2.296-1.138,3.002c-0.962,0.962-2.473,1.413-4.18,1.413
					c-0.451,0-0.863-0.02-1.177-0.079v4.984h-2.394V181.697z M86.542,187.859c0.294,0.079,0.687,0.098,1.177,0.098
					c1.805,0,2.904-0.883,2.904-2.433c0-1.472-1.021-2.257-2.688-2.257c-0.667,0-1.138,0.059-1.393,0.117V187.859z"/>
				<path style="fill:#D6723A;" d="M96.65,185.19l1.727,5.122c0.196,0.589,0.392,1.315,0.53,1.864h0.059
					c0.157-0.549,0.334-1.256,0.51-1.884l1.491-5.102h2.59l-2.394,6.515c-1.315,3.571-2.198,5.161-3.336,6.142
					c-0.942,0.844-1.923,1.158-2.531,1.236l-0.549-2.041c0.412-0.098,0.922-0.314,1.413-0.667c0.451-0.294,0.981-0.863,1.315-1.511
					c0.098-0.177,0.157-0.314,0.157-0.432c0-0.098-0.02-0.235-0.138-0.471l-3.493-8.772H96.65z"/>
				<path style="fill:#D6723A;" d="M107.72,182.462v2.728h2.296v1.806h-2.296v4.219c0,1.158,0.314,1.766,1.236,1.766
					c0.412,0,0.726-0.059,0.942-0.118l0.039,1.845c-0.353,0.137-0.981,0.235-1.746,0.235c-0.883,0-1.629-0.294-2.08-0.785
					c-0.51-0.549-0.746-1.413-0.746-2.669v-4.494h-1.374v-1.806h1.374v-2.158L107.72,182.462z"/>
				<path style="fill:#D6723A;" d="M111.842,180.814h2.433v5.691c0.334-0.451,0.726-0.824,1.236-1.099
					c0.471-0.275,1.04-0.432,1.648-0.432c1.629,0,3.336,1.079,3.336,4.141v5.632h-2.414v-5.357c0-1.393-0.51-2.433-1.845-2.433
					c-0.942,0-1.609,0.628-1.864,1.354c-0.078,0.196-0.098,0.451-0.098,0.726v5.71h-2.433V180.814z"/>
				<path style="fill:#D6723A;" d="M132.154,189.88c0,3.512-2.473,5.082-4.906,5.082c-2.708,0-4.788-1.864-4.788-4.926
					c0-3.14,2.06-5.063,4.945-5.063C130.251,184.974,132.154,186.976,132.154,189.88z M124.953,189.978
					c0,1.845,0.903,3.238,2.374,3.238c1.374,0,2.335-1.354,2.335-3.277c0-1.491-0.667-3.198-2.316-3.198
					C125.639,186.74,124.953,188.389,124.953,189.978z"/>
				<path style="fill:#D6723A;" d="M134.138,188.035c0-1.099-0.02-2.021-0.078-2.846h2.119l0.118,1.433h0.059
					c0.412-0.746,1.452-1.648,3.042-1.648c1.668,0,3.395,1.079,3.395,4.101v5.671h-2.414v-5.397c0-1.373-0.51-2.414-1.825-2.414
					c-0.962,0-1.629,0.687-1.884,1.413c-0.079,0.216-0.098,0.51-0.098,0.785v5.612h-2.433V188.035z"/>
			</g>
			<g id="XMLID_888_" style="opacity:0.7;">
				<path id="XMLID_884_" style="fill:#D6723A;" d="M101.047,165.543c-24.894,0-25.762,0.687-25.762-1.874
					c0-1.939-0.379-4.387,1.874-4.387c24.894,0,25.762-0.687,25.762,1.874C102.921,163.095,103.301,165.543,101.047,165.543z"/>
				<path id="XMLID_885_" style="fill:#D6723A;" d="M134.883,165.543c-24.894,0-25.762,0.687-25.762-1.874
					c0-1.939-0.379-4.387,1.874-4.387c24.894,0,25.762-0.687,25.762,1.874C136.758,163.095,137.137,165.543,134.883,165.543z"/>
				<path id="XMLID_886_" style="fill:#D6723A;" d="M168.719,165.543c-24.894,0-25.762,0.687-25.762-1.874
					c0-1.939-0.379-4.387,1.874-4.387c24.894,0,25.762-0.687,25.762,1.874v2.513C170.594,164.704,169.755,165.543,168.719,165.543z"
					/>
				<path id="XMLID_887_" style="fill:#D6723A;" d="M202.556,165.543c-24.894,0-25.762,0.687-25.762-1.874
					c0-1.939-0.379-4.387,1.874-4.387c24.894,0,25.762-0.687,25.762,1.874C204.43,163.095,204.809,165.543,202.556,165.543z"/>
			</g>
			<g id="XMLID_889_" style="opacity:0.7;">
				<path id="XMLID_895_" style="fill:#D6723A;" d="M101.047,176.156c-24.894,0-25.762,0.687-25.762-1.874
					c0-1.939-0.379-4.387,1.874-4.387c24.894,0,25.762-0.687,25.762,1.874C102.921,173.709,103.301,176.156,101.047,176.156z"/>
				<path id="XMLID_892_" style="fill:#D6723A;" d="M134.883,176.156c-24.894,0-25.762,0.687-25.762-1.874
					c0-1.939-0.379-4.387,1.874-4.387c24.894,0,25.762-0.687,25.762,1.874C136.758,173.709,137.137,176.156,134.883,176.156z"/>
				<path id="XMLID_891_" style="fill:#D6723A;" d="M168.719,176.156c-24.894,0-25.762,0.687-25.762-1.874
					c0-1.939-0.379-4.387,1.874-4.387h23.888c1.035,0,1.874,0.839,1.874,1.874v2.512
					C170.594,175.317,169.755,176.156,168.719,176.156z"/>
				<path id="XMLID_890_" style="fill:#D6723A;" d="M202.556,176.156c-24.894,0-25.762,0.687-25.762-1.874
					c0-1.939-0.379-4.387,1.874-4.387c24.894,0,25.762-0.687,25.762,1.874C204.43,173.709,204.809,176.156,202.556,176.156z"/>
				<path id="XMLID_896_" style="fill:#D6723A;" d="M202.556,192.076c-24.894,0-25.762,0.687-25.762-1.874
					c0-1.939-0.379-4.387,1.874-4.387c24.894,0,25.762-0.687,25.762,1.874C204.43,189.628,204.809,192.076,202.556,192.076z"/>
			</g>
			<g id="XMLID_929_" style="opacity:0.7;">
				<path id="XMLID_940_" style="fill:#D6723A;" d="M101.047,207.996c-24.894,0-25.762,0.687-25.762-1.874
					c0-1.939-0.379-4.387,1.874-4.387c24.894,0,25.762-0.687,25.762,1.874C102.921,205.548,103.301,207.996,101.047,207.996z"/>
				<path id="XMLID_933_" style="fill:#D6723A;" d="M134.883,207.996c-24.894,0-25.762,0.687-25.762-1.874
					c0-1.939-0.379-4.387,1.874-4.387c24.894,0,25.762-0.687,25.762,1.874v2.513C136.758,207.157,135.918,207.996,134.883,207.996z"
					/>
				<path id="XMLID_931_" style="fill:#D6723A;" d="M168.719,207.996c-24.894,0-25.762,0.687-25.762-1.874
					c0-1.939-0.379-4.387,1.874-4.387c24.894,0,25.762-0.687,25.762,1.874v2.513C170.594,207.157,169.755,207.996,168.719,207.996z"
					/>
				<path id="XMLID_930_" style="fill:#D6723A;" d="M202.556,207.996c-24.894,0-25.762,0.687-25.762-1.874
					c0-1.939-0.379-4.387,1.874-4.387c24.894,0,25.762-0.687,25.762,1.874C204.43,205.548,204.809,207.996,202.556,207.996z"/>
			</g>
			<g id="XMLID_941_" style="opacity:0.7;">
				<path id="XMLID_946_" style="fill:#D6723A;" d="M101.047,218.609c-24.894,0-25.762,0.687-25.762-1.874
					c0-1.939-0.379-4.387,1.874-4.387c24.894,0,25.762-0.687,25.762,1.874C102.921,216.162,103.301,218.609,101.047,218.609z"/>
				<path id="XMLID_945_" style="fill:#D6723A;" d="M134.883,218.609c-24.894,0-25.762,0.687-25.762-1.874
					c0-1.939-0.379-4.387,1.874-4.387c24.894,0,25.762-0.687,25.762,1.874C136.758,216.162,137.137,218.609,134.883,218.609z"/>
				<path id="XMLID_944_" style="fill:#D6723A;" d="M168.719,218.609c-24.894,0-25.762,0.687-25.762-1.874
					c0-1.939-0.379-4.387,1.874-4.387c24.894,0,25.762-0.687,25.762,1.874C170.594,216.162,170.973,218.609,168.719,218.609z"/>
				<path id="XMLID_942_" style="fill:#D6723A;" d="M202.556,218.609c-24.894,0-25.762,0.687-25.762-1.874
					c0-1.939-0.379-4.387,1.874-4.387c24.894,0,25.762-0.687,25.762,1.874C204.43,216.162,204.809,218.609,202.556,218.609z"/>
			</g>
			<g id="XMLID_962_" style="opacity:0.7;">
				<path id="XMLID_976_" style="fill:#D6723A;" d="M101.047,229.222c-24.894,0-25.762,0.687-25.762-1.874
					c0-1.939-0.379-4.387,1.874-4.387c24.894,0,25.762-0.687,25.762,1.874C102.921,226.775,103.301,229.222,101.047,229.222z"/>
				<path id="XMLID_975_" style="fill:#D6723A;" d="M134.883,229.222c-24.894,0-25.762,0.687-25.762-1.874
					c0-1.939-0.379-4.387,1.874-4.387c24.894,0,25.762-0.687,25.762,1.874v2.513C136.758,228.383,135.918,229.222,134.883,229.222z"
					/>
				<path id="XMLID_973_" style="fill:#D6723A;" d="M168.719,229.222c-24.894,0-25.762,0.687-25.762-1.874
					c0-1.939-0.379-4.387,1.874-4.387c24.894,0,25.762-0.687,25.762,1.874C170.594,226.775,170.973,229.222,168.719,229.222z"/>
				<path id="XMLID_964_" style="fill:#D6723A;" d="M202.556,229.222c-24.894,0-25.762,0.687-25.762-1.874
					c0-1.939-0.379-4.387,1.874-4.387c24.894,0,25.762-0.687,25.762,1.874C204.43,226.775,204.809,229.222,202.556,229.222z"/>
			</g>
		</g>
	</g>
	<g id="XMLID_1059_">
		<g id="XMLID_721_">
			<g id="XMLID_714_">
				<path style="fill:#FFFFFF;" d="M257.808,272.644c-4.42-1.227-3.094,4.444-3.094-125.904c0,0,81.281,20.64,125.012,0v122.473
					C379.727,278.565,328.842,292.356,257.808,272.644z"/>
				<path style="fill:#EEE4D9;" d="M327.114,283.105c-19.265,0-42.909-2.676-69.424-10.034c-0.168-0.047-0.327-0.082-0.478-0.117
					c-3.238-0.737-3.238-0.737-3.067-55.446c0.053-17.048,0.127-40.397,0.127-70.768v-0.569l0.552,0.14
					c0.203,0.052,20.594,5.184,46.055,7.73c23.467,2.347,56.164,2.916,78.659-7.701l0.632-0.298v123.172
					c0,1.393-0.94,2.814-2.794,4.223C371.043,278.251,353.05,283.105,327.114,283.105z M257.927,272.218
					c61.913,17.18,107.999,8.812,118.913,0.514c1.599-1.216,2.444-2.432,2.444-3.518V147.435
					c-22.658,10.4-55.143,9.824-78.507,7.486c-23.191-2.321-42.187-6.781-45.62-7.616c-0.001,30.097-0.073,53.263-0.126,70.205
					c-0.166,52.99-0.122,54.011,2.377,54.579C257.572,272.127,257.745,272.167,257.927,272.218z"/>
			</g>
			<g id="XMLID_720_">
				<path style="fill:#444244;" d="M373.839,142.85c-36.751,15.263-96.08,2.837-113.901-1.468c-1.888-0.456-5.224,0.178-5.224,5.358
					c0,0,83.369,20.64,125.012,0C379.727,143.708,376.64,141.687,373.839,142.85z"/>
				<path style="fill:#444244;" d="M328.575,156.333c-9.53,0-18.811-0.6-27.014-1.412c-25.781-2.554-46.744-7.699-46.953-7.751
					l-0.336-0.083v-0.347c0-2.333,0.643-4.021,1.911-5.02c1.534-1.207,3.342-0.893,3.86-0.769
					c17.385,4.2,76.958,16.718,113.627,1.49c1.463-0.608,3.12-0.449,4.432,0.427c1.295,0.864,2.068,2.312,2.068,3.872v0.275
					l-0.246,0.122C365.758,154.158,346.72,156.333,328.575,156.333z M255.163,146.393c5.864,1.398,84.355,19.537,124.112,0.076
					c-0.08-1.171-0.677-2.204-1.665-2.864c-1.064-0.71-2.411-0.84-3.6-0.346c-13.22,5.49-29.381,7.404-45.475,7.404
					c-28.85,0.001-57.498-6.144-68.7-8.85c-0.42-0.101-1.883-0.357-3.104,0.604C255.747,143.191,255.22,144.528,255.163,146.393z"/>
			</g>
			<g id="XMLID_1144_">
				<path id="XMLID_1174_" style="fill:#BEC0C2;" d="M373.812,147.291c1.89-0.721,2.634-0.825,2.372-1.513
					c-0.506-1.327-0.639-2.113-1.316-1.855c-1.89,0.721-2.634,0.825-2.372,1.513C373.003,146.763,373.136,147.549,373.812,147.291z"
					/>
				<g id="XMLID_1145_">
					<g id="XMLID_1160_">
						<path style="fill:#FFFFFF;" d="M373.723,146.991c-0.047,0-0.095-0.012-0.139-0.036c-0.136-0.077-0.185-0.249-0.108-0.386
							l1.236-2.2c0.076-0.137,0.248-0.185,0.386-0.108c0.136,0.077,0.185,0.249,0.108,0.386l-1.236,2.2
							C373.917,146.939,373.822,146.991,373.723,146.991z"/>
					</g>
					<g id="XMLID_1158_">
						<path style="fill:#FFFFFF;" d="M375.534,146.3c-0.03,0-0.061-0.005-0.092-0.015l-2.387-0.819
							c-0.148-0.051-0.227-0.212-0.176-0.36c0.051-0.148,0.211-0.226,0.36-0.176l2.387,0.819c0.148,0.051,0.227,0.212,0.176,0.36
							C375.762,146.226,375.652,146.3,375.534,146.3z"/>
					</g>
				</g>
			</g>
		</g>
		<g id="XMLID_1058_">
			<g id="XMLID_906_">
				<g>
					<path style="fill:#444244;" d="M325.372,193.268c-0.427,0.221-1.368,0.441-2.56,0.441c-3.149,0-5.061-1.971-5.061-4.988
						c0-3.266,2.266-5.238,5.296-5.238c1.192,0,2.046,0.25,2.413,0.441l-0.397,1.442c-0.471-0.206-1.118-0.383-1.942-0.383
						c-2.016,0-3.472,1.265-3.472,3.649c0,2.178,1.28,3.576,3.458,3.576c0.735,0,1.5-0.147,1.971-0.368L325.372,193.268z"/>
					<path style="fill:#444244;" d="M330.858,185.735v3.325h3.192v1.147h-3.192v3.355h-1.207v-3.355h-3.193v-1.147h3.193v-3.325
						H330.858z"/>
					<path style="fill:#444244;" d="M339.625,185.735v3.325h3.193v1.147h-3.193v3.355h-1.207v-3.355h-3.193v-1.147h3.193v-3.325
						H339.625z"/>
				</g>
			</g>
			<g id="XMLID_908_">
				<g>
					<path style="fill:#D6723A;" d="M322.045,214.26c0.864-0.157,2.06-0.274,3.689-0.274c1.767,0,3.062,0.373,3.906,1.079
						c0.784,0.647,1.295,1.688,1.295,2.924c0,1.256-0.393,2.296-1.139,3.003c-0.962,0.962-2.473,1.413-4.179,1.413
						c-0.452,0-0.864-0.02-1.178-0.079v4.984h-2.394V214.26z M324.439,220.422c0.295,0.079,0.687,0.098,1.178,0.098
						c1.805,0,2.904-0.883,2.904-2.433c0-1.472-1.02-2.257-2.688-2.257c-0.667,0-1.138,0.059-1.394,0.118V220.422z"/>
					<path style="fill:#D6723A;" d="M335.43,214.083v5.299h5.593v-5.299h2.413v13.226h-2.413v-5.828h-5.593v5.828h-2.414v-13.226
						H335.43z"/>
					<path style="fill:#D6723A;" d="M346.206,214.26c0.864-0.157,2.06-0.274,3.689-0.274c1.767,0,3.062,0.373,3.906,1.079
						c0.785,0.647,1.295,1.688,1.295,2.924c0,1.256-0.393,2.296-1.139,3.003c-0.962,0.962-2.473,1.413-4.179,1.413
						c-0.451,0-0.864-0.02-1.178-0.079v4.984h-2.394V214.26z M348.6,220.422c0.295,0.079,0.687,0.098,1.178,0.098
						c1.805,0,2.904-0.883,2.904-2.433c0-1.472-1.02-2.257-2.688-2.257c-0.667,0-1.138,0.059-1.394,0.118V220.422z"/>
				</g>
			</g>
			<g id="XMLID_912_">
				<g>
					<path style="fill:#444244;" d="M349.96,259.534c-0.427,0.221-1.368,0.441-2.56,0.441c-3.149,0-5.062-1.972-5.062-4.988
						c0-3.267,2.266-5.238,5.297-5.238c1.192,0,2.045,0.25,2.413,0.442l-0.397,1.442c-0.471-0.206-1.118-0.382-1.942-0.382
						c-2.016,0-3.472,1.265-3.472,3.649c0,2.178,1.28,3.575,3.458,3.575c0.735,0,1.501-0.147,1.971-0.367L349.96,259.534z"/>
					<path style="fill:#444244;" d="M351.826,259.829l0.383-2.737h-1.207v-1.148h1.383l0.264-1.868h-1.265v-1.133h1.427l0.382-2.678
						h1.104l-0.368,2.678h1.427l0.382-2.678h1.104l-0.368,2.678h1.192v1.133h-1.368l-0.25,1.868h1.236v1.133h-1.427l-0.368,2.751
						h-1.133l0.383-2.751h-1.413l-0.383,2.751H351.826z M354.931,255.944l0.25-1.868h-1.427l-0.25,1.868H354.931z"/>
				</g>
			</g>
			<g id="XMLID_1001_" style="opacity:0.8;">
				<path id="XMLID_928_" style="fill:#9EBFD8;" d="M307.332,168.762h-21.82c-0.945,0-1.712-0.766-1.712-1.712v-2.295
					c0-0.945,0.767-1.712,1.712-1.712h21.82c0.946,0,1.712,0.767,1.712,1.712v2.295
					C309.044,167.995,308.277,168.762,307.332,168.762z"/>
				<path id="XMLID_994_" style="fill:#D6723A;" d="M336.026,168.762c-22.745,0-23.532,0.625-23.532-1.712
					c0-1.73-0.352-4.007,1.712-4.007c22.745,0,23.532-0.625,23.532,1.712C337.738,166.485,338.09,168.762,336.026,168.762z"/>
				<path id="XMLID_1000_" style="fill:#9EBFD8;" d="M364.721,168.762c-22.745,0-23.532,0.625-23.532-1.712
					c0-1.73-0.352-4.007,1.712-4.007c22.745,0,23.532-0.625,23.532,1.712C366.433,166.485,366.784,168.762,364.721,168.762z"/>
			</g>
			<g id="XMLID_1002_" style="opacity:0.8;">
				<path id="XMLID_1005_" style="fill:#9EBFD8;" d="M307.332,180.742h-21.82c-0.945,0-1.712-0.767-1.712-1.712v-2.295
					c0-0.946,0.767-1.712,1.712-1.712h21.82c0.946,0,1.712,0.766,1.712,1.712v2.295
					C309.044,179.975,308.277,180.742,307.332,180.742z"/>
				<path id="XMLID_1004_" style="fill:#9EBFD8;" d="M336.026,180.742c-22.745,0-23.532,0.625-23.532-1.712
					c0-1.73-0.352-4.007,1.712-4.007c22.745,0,23.532-0.625,23.532,1.712C337.738,178.465,338.09,180.742,336.026,180.742z"/>
			</g>
			<path id="XMLID_1010_" style="opacity:0.8;fill:#9EBFD8;" d="M307.332,192.722h-21.82c-0.945,0-1.712-0.767-1.712-1.712v-2.295
				c0-0.945,0.767-1.712,1.712-1.712h21.82c0.946,0,1.712,0.766,1.712,1.712v2.295C309.044,191.956,308.277,192.722,307.332,192.722
				z"/>
			<g id="XMLID_1013_" style="opacity:0.8;">
				<path id="XMLID_1041_" style="fill:#9EBFD8;" d="M307.332,204.703c-22.745,0-23.532,0.625-23.532-1.712
					c0-1.73-0.352-4.007,1.712-4.007c22.745,0,23.532-0.625,23.532,1.712v2.295C309.044,203.936,308.277,204.703,307.332,204.703z"
					/>
				<path id="XMLID_1035_" style="fill:#9EBFD8;" d="M336.026,204.703h-21.82c-0.946,0-1.712-0.767-1.712-1.712v-2.295
					c0-0.945,0.766-1.712,1.712-1.712h21.82c0.946,0,1.712,0.767,1.712,1.712v2.295
					C337.738,203.936,336.972,204.703,336.026,204.703z"/>
				<path id="XMLID_1034_" style="fill:#9EBFD8;" d="M364.721,204.703c-22.745,0-23.532,0.625-23.532-1.712
					c0-1.73-0.352-4.007,1.712-4.007c22.745,0,23.532-0.625,23.532,1.712C366.433,202.426,366.784,204.703,364.721,204.703z"/>
			</g>
			<path id="XMLID_1045_" style="opacity:0.8;fill:#514342;" d="M307.332,216.683c-22.745,0-23.532,0.626-23.532-1.712
				c0-1.73-0.352-4.007,1.712-4.007h21.82c0.946,0,1.712,0.766,1.712,1.712v2.295C309.044,215.916,308.277,216.683,307.332,216.683z
				"/>
			<path id="XMLID_1049_" style="opacity:0.8;fill:#514342;" d="M307.332,228.663c-22.745,0-23.532,0.625-23.532-1.712
				c0-1.73-0.352-4.007,1.712-4.007c22.745,0,23.532-0.626,23.532,1.712v2.295C309.044,227.897,308.277,228.663,307.332,228.663z"/>
			<g id="XMLID_1050_" style="opacity:0.8;">
				<path id="XMLID_1053_" style="fill:#9EBFD8;" d="M307.332,240.643c-22.745,0-23.532,0.625-23.532-1.712
					c0-1.73-0.352-4.007,1.712-4.007c22.745,0,23.532-0.625,23.532,1.712C309.044,238.367,309.396,240.643,307.332,240.643z"/>
				<path id="XMLID_1052_" style="fill:#9EBFD8;" d="M336.026,240.643c-22.745,0-23.532,0.625-23.532-1.712
					c0-1.73-0.352-4.007,1.712-4.007c22.745,0,23.532-0.625,23.532,1.712C337.738,238.367,338.09,240.643,336.026,240.643z"/>
				<path id="XMLID_1051_" style="fill:#9EBFD8;" d="M364.721,240.643c-22.745,0-23.532,0.625-23.532-1.712
					c0-1.73-0.352-4.007,1.712-4.007c22.745,0,23.532-0.625,23.532,1.712C366.433,238.367,366.784,240.643,364.721,240.643z"/>
			</g>
			<path id="XMLID_1057_" style="opacity:0.8;fill:#9EBFD8;" d="M307.332,252.624c-22.745,0-23.532,0.626-23.532-1.712
				c0-1.73-0.352-4.007,1.712-4.007h21.82c0.946,0,1.712,0.767,1.712,1.712v2.295C309.044,251.857,308.277,252.624,307.332,252.624z
				"/>
			<path id="XMLID_1056_" style="opacity:0.8;fill:#D6723A;" d="M336.026,252.624h-21.82c-0.946,0-1.712-0.766-1.712-1.712v-2.295
				c0-0.945,0.766-1.712,1.712-1.712c22.745,0,23.532-0.625,23.532,1.712v2.295C337.738,251.857,336.972,252.624,336.026,252.624z"
				/>
			<path id="XMLID_1061_" style="opacity:0.8;fill:#9EBFD8;" d="M307.332,264.604c-22.745,0-23.532,0.625-23.532-1.712
				c0-1.73-0.352-4.007,1.712-4.007c22.745,0,23.532-0.625,23.532,1.712C309.044,262.327,309.396,264.604,307.332,264.604z"/>
			<path id="XMLID_1060_" style="opacity:0.8;fill:#9EBFD8;" d="M336.026,264.604c-22.745,0-23.532,0.625-23.532-1.712
				c0-1.73-0.352-4.007,1.712-4.007c22.745,0,23.532-0.625,23.532,1.712C337.738,262.327,338.09,264.604,336.026,264.604z"/>
			<path id="XMLID_991_" style="opacity:0.8;fill:#514342;" d="M351.698,186.468h4.227c0.708,0,1.281,0.574,1.281,1.281
				c0,3.745,0.377,5.508-1.281,5.508c-3.745,0-5.508,0.377-5.508-1.281v-4.227C350.416,187.042,350.99,186.468,351.698,186.468z"/>
			<path id="XMLID_1007_" style="opacity:0.8;fill:#514342;" d="M360.925,186.468h4.227c0.708,0,1.281,0.574,1.281,1.281
				c0,3.745,0.377,5.508-1.281,5.508c-3.745,0-5.508,0.377-5.508-1.281v-4.227C359.644,187.042,360.217,186.468,360.925,186.468z"/>
			<path id="XMLID_1043_" style="opacity:0.8;fill:#514342;" d="M265.258,246.369c3.745,0,5.508-0.377,5.508,1.281
				c0,3.745,0.378,5.508-1.281,5.508c-3.745,0-5.508,0.377-5.508-1.281C263.977,248.132,263.6,246.369,265.258,246.369z"/>
			<path id="XMLID_1008_" style="opacity:0.8;fill:#514342;" d="M274.486,246.369c3.745,0,5.508-0.377,5.508,1.281
				c0,3.745,0.377,5.508-1.281,5.508c-3.745,0-5.508,0.377-5.508-1.281v-4.227C273.204,246.943,273.778,246.369,274.486,246.369z"/>
			<path id="XMLID_1046_" style="opacity:0.8;fill:#514342;" d="M265.258,222.409c3.745,0,5.508-0.377,5.508,1.281
				c0,3.745,0.378,5.508-1.281,5.508c-3.745,0-5.508,0.378-5.508-1.281C263.977,224.171,263.6,222.409,265.258,222.409z"/>
			<path id="XMLID_1044_" style="opacity:0.8;fill:#514342;" d="M274.486,222.409c3.745,0,5.508-0.377,5.508,1.281
				c0,3.745,0.377,5.508-1.281,5.508c-3.745,0-5.508,0.378-5.508-1.281C273.204,224.171,272.827,222.409,274.486,222.409z"/>
			<path id="XMLID_1048_" style="opacity:0.8;fill:#514342;" d="M265.258,198.448c3.745,0,5.508-0.377,5.508,1.281
				c0,3.745,0.378,5.508-1.281,5.508c-3.745,0-5.508,0.378-5.508-1.281C263.977,200.211,263.6,198.448,265.258,198.448z"/>
			<path id="XMLID_1047_" style="opacity:0.8;fill:#514342;" d="M274.486,198.448c3.745,0,5.508-0.377,5.508,1.281
				c0,3.745,0.377,5.508-1.281,5.508c-3.745,0-5.508,0.378-5.508-1.281C273.204,200.211,272.827,198.448,274.486,198.448z"/>
			<path id="XMLID_1055_" style="opacity:0.8;fill:#514342;" d="M265.258,174.488h4.227c0.708,0,1.281,0.574,1.281,1.281v4.227
				c0,0.708-0.574,1.281-1.281,1.281h-4.227c-0.708,0-1.281-0.574-1.281-1.281v-4.227
				C263.977,175.062,264.551,174.488,265.258,174.488z"/>
			<path id="XMLID_1054_" style="opacity:0.8;fill:#514342;" d="M274.486,174.488h4.227c0.708,0,1.281,0.574,1.281,1.281v4.227
				c0,0.708-0.574,1.281-1.281,1.281h-4.227c-0.708,0-1.281-0.574-1.281-1.281v-4.227
				C273.204,175.062,273.778,174.488,274.486,174.488z"/>
			<path id="XMLID_1006_" style="opacity:0.8;fill:#514342;" d="M364.694,252.473c7.729,0,9.675-0.49,9.675,1.655
				c0,2.862,0.425,5.134-1.655,5.134c-7.729,0-9.675,0.49-9.675-1.655C363.038,254.744,362.613,252.473,364.694,252.473z"/>
		</g>
	</g>
	<g id="XMLID_1092_">
		<g id="XMLID_782_">
			<path style="fill:#FFFFFF;" d="M223.042,279.138c-56.552-3.632-75.309,6.469-73.88-4.681c0.459-3.584,0.914-8.386,0.914-13.364
				c0-7.531,6.397-13.517,13.915-13.075c55.079,3.242,74.369-6.5,71.918,5.009c-1.221,5.733-2.145,11.254-2.103,16.034
				C233.856,274.891,228.861,279.511,223.042,279.138z"/>
			<path style="fill:#EEE4D9;" d="M157.363,280.452c-4.029,0-6.48-0.46-7.797-1.865c-0.903-0.963-1.21-2.299-0.966-4.203
				c0.414-3.236,0.909-8.169,0.909-13.292c0-3.785,1.525-7.308,4.293-9.918c2.743-2.587,6.469-3.939,10.221-3.722
				c23.692,1.394,40.915,0.373,52.311-0.301c11.52-0.684,17.303-1.026,19.464,1.489c0.887,1.032,1.098,2.463,0.663,4.505
				c-0.997,4.684-2.137,10.725-2.091,15.911c0.025,2.946-1.148,5.691-3.305,7.732c-2.159,2.043-5.104,3.103-8.061,2.916
				c-25.211-1.62-42.919-0.504-54.636,0.234C163.816,280.224,160.199,280.452,157.363,280.452z M163.196,248.561
				c-3.213,0-6.248,1.205-8.616,3.438c-2.539,2.394-3.938,5.624-3.938,9.094c0,5.183-0.499,10.167-0.918,13.436
				c-0.198,1.543,0.015,2.586,0.669,3.284c1.878,2.004,7.911,1.623,17.905,0.994c11.746-0.74,29.499-1.857,54.78-0.234
				c2.651,0.174,5.278-0.78,7.21-2.608c1.925-1.821,2.973-4.272,2.95-6.899c-0.046-5.297,1.107-11.417,2.116-16.157
				c0.355-1.667,0.224-2.79-0.414-3.531c-1.795-2.089-8.097-1.715-18.538-1.097c-11.423,0.676-28.686,1.701-52.445,0.301
				C163.703,248.568,163.449,248.561,163.196,248.561z"/>
		</g>
		<g id="XMLID_1090_">
			<g>
				<path style="fill:#444244;" d="M199.666,267.251c-0.427,0.221-1.368,0.442-2.56,0.442c-3.149,0-5.062-1.972-5.062-4.988
					c0-3.267,2.266-5.238,5.297-5.238c1.192,0,2.045,0.25,2.413,0.441l-0.397,1.442c-0.471-0.206-1.118-0.382-1.942-0.382
					c-2.015,0-3.472,1.265-3.472,3.649c0,2.178,1.28,3.575,3.458,3.575c0.735,0,1.5-0.147,1.971-0.367L199.666,267.251z"/>
				<path style="fill:#444244;" d="M201.533,267.545l0.383-2.737h-1.207v-1.148h1.383l0.264-1.868h-1.265v-1.133h1.427l0.382-2.678
					h1.104l-0.368,2.678h1.427l0.382-2.678h1.104l-0.368,2.678h1.192v1.133h-1.368l-0.25,1.868h1.235v1.133h-1.427l-0.368,2.751
					h-1.133l0.383-2.751h-1.413l-0.383,2.751H201.533z M204.637,263.661l0.25-1.868h-1.427l-0.25,1.868H204.637z"/>
			</g>
		</g>
		<path id="XMLID_1069_" style="opacity:0.8;fill:#D6723A;" d="M186.299,261.473c-22.745,0-23.532,0.625-23.532-1.712
			c0-1.73-0.352-4.007,1.712-4.007c22.745,0,23.532-0.626,23.532,1.712C188.011,259.197,188.363,261.473,186.299,261.473z"/>
		<path id="XMLID_849_" style="opacity:0.8;fill:#9EBFD8;" d="M186.299,270.621c-22.745,0-23.532,0.626-23.532-1.712
			c0-1.73-0.352-4.007,1.712-4.007c22.745,0,23.532-0.625,23.532,1.712C188.011,268.344,188.363,270.621,186.299,270.621z"/>
		<path id="XMLID_811_" style="opacity:0.8;fill:#514342;" d="M214.966,259.056c7.729,0,9.675-0.49,9.675,1.655
			c0,2.862,0.425,5.134-1.655,5.134c-7.729,0-9.675,0.49-9.675-1.655C213.311,261.328,212.886,259.056,214.966,259.056z"/>
		<path id="XMLID_1091_" style="opacity:0.8;fill:#514342;" d="M156.454,255.754c4.087,0,5.613-0.346,5.613,1.176
			c0,2.913,0.33,4.543-1.176,4.543c-4.087,0-5.613,0.346-5.613-1.176C155.278,257.384,154.948,255.754,156.454,255.754z"/>
		<path id="XMLID_1093_" style="opacity:0.8;fill:#514342;" d="M156.454,264.902c4.087,0,5.613-0.346,5.613,1.176
			c0,2.913,0.33,4.543-1.176,4.543c-4.087,0-5.613,0.346-5.613-1.176C155.278,266.532,154.948,264.902,156.454,264.902z"/>
	</g>
	<path id="XMLID_1097_" style="fill:#E0DFEA;" d="M310.081,369.022c0,14.331-109.356,14.329-109.356,0
		C200.725,354.69,310.081,354.693,310.081,369.022z"/>
	<g id="XMLID_99_">
		<path id="XMLID_1662_" style="fill:#FFA887;" d="M247.632,130.564c0.078,6.381,2.192,11.113-9.544,16.635
			c6.985,9.61,13.865,13.161,13.865,13.161s14.718-6.625,19.775-11.009c-6.222-4.527-10.743-5.071-10.628-11.14
			c0.028-1.457-0.041-7.414-0.08-7.529L247.632,130.564z"/>
		<path id="XMLID_1660_" style="fill:#FFA887;" d="M259.012,132.799c3.332-0.913,9.102-10.253,7.705-22.55
			c-0.968-8.523-18.746-15.217-21.314-0.081c-1.198,8.666-8.162,8.824-1.927,11.433c0,0-1.462,7.76,4.845,10.097
			C246.276,130.867,253.599,134.282,259.012,132.799z"/>
		<g id="XMLID_1620_">
			<path id="XMLID_1626_" style="fill:#FCA685;" d="M228.657,357.853c2.142,1.649,5.441,1.279,8.462-0.463l3.079-14.839
				l-11.327,0.27L228.657,357.853z"/>
		</g>
		<g id="XMLID_1613_">
			<path id="XMLID_1619_" style="fill:#FCA685;" d="M283.925,357.853c-2.142,1.649-5.441,1.279-8.462-0.463l-3.079-14.839
				l11.327,0.27L283.925,357.853z"/>
		</g>
		<g id="XMLID_1612_">
			<path style="fill:#3B314A;" d="M275.924,209.332c10.317,40.771,11.964,142.673,9.851,143.177
				c-1.34,0.32-12.278,2.262-12.754,0.083c-10.938-50.121-18.84-98.582-18.84-98.582c-4.501,49.961-12.467,98.657-15.447,99.065
				c-2.688,0.368-12.126-0.64-12.272-2.715c-0.779-11.058-2.386-118.141,4.477-141.522L275.924,209.332z"/>
			<path style="fill:#617690;" d="M276.541,353.894c-1.425,0-2.629-0.147-3.263-0.545c-0.293-0.184-0.472-0.418-0.533-0.697
				c-9.515-43.596-16.81-86.42-18.481-96.418c-2.084,22.598-5.018,46.506-8.096,65.935c-2.23,14.07-5.322,30.903-7.394,31.186
				c-2.278,0.312-9.988-0.389-12.029-2.048c-0.351-0.285-0.54-0.597-0.564-0.928c-0.862-12.237-2.299-118.499,4.487-141.622
				l0.061-0.206l0.214,0.002l45.202,0.497l0.053,0.211c5.825,23.018,8.473,63.42,9.534,85.453
				c1.468,30.506,1.406,56.152,0.372,57.859c-0.069,0.113-0.158,0.184-0.263,0.209C285.015,352.982,280.095,353.894,276.541,353.894
				z M254.101,251.753l0.36,2.212c0.079,0.484,8.026,49.027,18.837,98.567c0.028,0.126,0.12,0.237,0.281,0.338
				c1.87,1.175,10.28-0.211,12.06-0.62c0.853-1.578,1.036-26.001-0.46-57.248c-1.055-22.016-3.686-62.322-9.476-85.388l-44.551-0.49
				c-6.702,23.483-5.265,129.028-4.406,141.217c0.012,0.168,0.132,0.346,0.356,0.528c1.805,1.466,9.18,2.257,11.595,1.926
				c0.776-0.106,3.105-6.694,6.911-30.714c3.176-20.049,6.199-44.869,8.291-68.096L254.101,251.753z"/>
		</g>
		<g id="XMLID_1587_">
			<path id="XMLID_1589_" style="fill:#3B314A;" d="M265.739,216.435c0.213,0,0.13-8.185,0.13-7.992c0-0.225-1.529-0.13-1.328-0.13
				c-0.213,0-0.13,8.185-0.13,7.992C264.411,216.53,265.94,216.435,265.739,216.435z"/>
			<path id="XMLID_1588_" style="fill:#3B314A;" d="M239.44,215.872c0.213,0,0.13-8.185,0.13-7.992c0-0.225-1.529-0.13-1.328-0.13
				c-0.213,0-0.13,8.185-0.13,7.992C238.112,215.967,239.641,215.872,239.44,215.872z"/>
		</g>
		<g id="XMLID_1577_">
			<path style="fill:#FFFFF8;" d="M261.77,140.583c-4.989,2.801-11.249,2.597-15.259,0.576c-9.214,2.808-18.326,4.336-18.131,13.424
				c0.403,18.883-0.906,53.293,2.561,54.254c15.73,4.359,44.318,3,46.728,0c3.266-4.067,1.988-30.456,0.79-47.417
				C277.794,152.004,271.503,143.446,261.77,140.583z"/>
			<path style="fill:#EFE5DA;" d="M256.788,211.913c-8.878,0-18.766-0.819-25.923-2.803c-2.57-0.712-2.733-15.225-2.687-37.286
				c0.013-6.309,0.025-12.269-0.081-17.235c-0.177-8.319,7.365-10.506,15.351-12.822c0.985-0.286,1.982-0.575,2.981-0.88
				l0.109-0.033l0.101,0.051c3.549,1.787,9.753,2.372,14.992-0.571l0.104-0.058l0.115,0.034
				c9.408,2.766,16.196,11.242,16.892,21.089c1.379,19.521,2.35,43.627-0.853,47.614
				C276.493,210.753,267.357,211.913,256.788,211.913z M246.486,141.464c-0.965,0.293-1.929,0.573-2.881,0.849
				c-8.108,2.351-15.11,4.382-14.942,12.265c0.106,4.973,0.094,10.935,0.081,17.248c-0.033,16.078-0.074,36.088,2.272,36.739
				c16.04,4.446,44.244,2.819,46.431,0.095c2.408-2.999,2.667-19.768,0.729-47.219c-0.687-9.723-7.108-17.778-16.372-20.552
				C256.456,143.838,250.156,143.265,246.486,141.464z"/>
		</g>
		<g id="XMLID_75_">
			<g id="XMLID_54_">
				<path style="fill:#30323E;" d="M268.368,137.107c-1.659,0-3.997-0.335-7.248-1.011c-0.153-0.032-0.252-0.182-0.22-0.335
					c0.032-0.154,0.184-0.251,0.335-0.22c5.91,1.228,8.734,1.324,9.752,0.336c0.813-0.79,0.523-2.413,0.122-4.66
					c-0.43-2.409-1.019-5.707-0.43-9.549c1.926-12.574-4.1-17.462-7.864-19.256c-5.427-2.588-12.029-1.717-14.307,0.79
					c-0.105,0.116-0.284,0.124-0.4,0.019c-0.116-0.105-0.125-0.284-0.019-0.4c2.413-2.653,9.327-3.611,14.97-0.92
					c3.905,1.862,10.162,6.917,8.18,19.853c-0.574,3.748-0.019,6.862,0.428,9.363c0.432,2.419,0.743,4.166-0.285,5.166
					C270.818,136.831,269.872,137.107,268.368,137.107z"/>
			</g>
			<g id="XMLID_57_">
				<path style="fill:#30323E;" d="M254.416,132.803c-0.049,0-0.099-0.013-0.144-0.04c-4.098-2.428-4.421-7.574-4.634-10.979
					c-0.071-1.126-0.132-2.098-0.316-2.651c-0.655-1.967-2.462-3.247-4.208-4.486c-1.295-0.918-2.517-1.784-3.112-2.862
					c-0.767-1.391-0.922-3.989,0.304-6.065c0.807-1.366,2.501-2.994,5.993-2.994c0.157,0,0.283,0.127,0.283,0.283
					s-0.127,0.283-0.283,0.283c-3.225,0-4.774,1.477-5.505,2.715c-1.119,1.895-0.988,4.249-0.296,5.503
					c0.532,0.964,1.704,1.794,2.943,2.674c1.737,1.231,3.705,2.626,4.418,4.769c0.207,0.623,0.267,1.581,0.344,2.794
					c0.205,3.286,0.517,8.252,4.357,10.527c0.135,0.08,0.179,0.253,0.099,0.388C254.607,132.754,254.512,132.803,254.416,132.803z"
					/>
			</g>
		</g>
		<path id="XMLID_519_" style="fill:#30323E;" d="M249.992,101.593c7.681-2.724,17.295,1.905,19.034,7.92
			c1.338,4.629,2.958,22.697-2.918,18.986c-6.37-4.023-10.002-14.783-14.186-20.65C251.191,106.824,244.773,103.443,249.992,101.593
			z"/>
		<path id="XMLID_520_" style="fill:#30323E;" d="M257.086,106.253c3.057,2.879,2.516,4.429,3.343,7.196
			c1.954,6.538,9.985,9.031,10.434,19.525c0.133,3.104-1.387,3.806-4.27,3.158c-11.638-2.615-15.947-1.83-15.735-10.21
			c0.287-11.383-2.991-9.54-6.536-13.08C238.533,107.058,247.531,97.253,257.086,106.253z"/>
		<g id="XMLID_39_">
			<g id="XMLID_30_">
				<path style="fill:#353B4A;" d="M248.3,112.529c-0.061,0-0.122-0.019-0.174-0.06c-3.089-2.395-3.237-4.418-2.817-5.693
					c0.47-1.426,1.875-2.409,2.892-2.432c0.165-0.002,0.287,0.121,0.29,0.277c0.003,0.156-0.121,0.286-0.277,0.29
					c-0.713,0.016-1.957,0.801-2.367,2.043c-0.363,1.102-0.202,2.876,2.626,5.068c0.123,0.096,0.146,0.274,0.05,0.397
					C248.468,112.491,248.384,112.529,248.3,112.529z"/>
			</g>
			<g id="XMLID_31_">
				<path style="fill:#353B4A;" d="M264.686,106.115c-0.07,0-0.139-0.026-0.194-0.077c-5.163-4.871-9.967-4.014-13.576-2.724
					c-0.148,0.053-0.309-0.024-0.362-0.171c-0.053-0.147,0.024-0.31,0.171-0.362c3.467-1.239,8.708-2.294,14.154,2.845
					c0.114,0.107,0.119,0.287,0.012,0.401C264.837,106.085,264.762,106.115,264.686,106.115z"/>
			</g>
			<g id="XMLID_32_">
				<path style="fill:#353B4A;" d="M251.795,110.021c-0.165-0.005-0.288-0.136-0.283-0.292c0.067-2.147-0.805-4.329-2.331-5.839
					c-0.111-0.11-0.112-0.289-0.002-0.401c0.11-0.111,0.289-0.113,0.401-0.002c1.637,1.618,2.571,3.958,2.499,6.259
					C252.073,109.9,251.947,110.021,251.795,110.021z"/>
			</g>
			<g id="XMLID_33_">
				<path style="fill:#353B4A;" d="M259.129,106.997c-0.057,0-0.115-0.017-0.164-0.053c-2.744-1.953-4.456-2.198-7.049-1.01
					c-0.141,0.064-0.31,0.003-0.375-0.139c-0.065-0.142-0.003-0.31,0.139-0.376c2.781-1.276,4.703-1.007,7.613,1.064
					c0.127,0.091,0.157,0.267,0.066,0.395C259.305,106.955,259.218,106.997,259.129,106.997z"/>
			</g>
			<g id="XMLID_34_">
				<path style="fill:#353B4A;" d="M259.499,125.743c-0.03,0-0.062-0.005-0.092-0.015c-0.148-0.051-0.226-0.212-0.175-0.36
					c1.769-5.132,1.785-9.268,0.049-12.294c-1.938-3.375-5.352-4.09-5.496-4.118c-0.153-0.03-0.253-0.18-0.222-0.333
					c0.031-0.154,0.182-0.254,0.333-0.222c0.155,0.031,3.813,0.796,5.877,4.392c1.822,3.174,1.82,7.467-0.004,12.76
					C259.726,125.669,259.616,125.743,259.499,125.743z"/>
			</g>
			<g id="XMLID_36_">
				<path style="fill:#353B4A;" d="M267.588,125.416c-0.083,0-0.166-0.037-0.222-0.107c-3.395-4.285-2.3-8.003-1.42-10.99
					c0.592-2.008,1.103-3.742,0.113-5.152c-0.09-0.128-0.059-0.304,0.069-0.394c0.127-0.09,0.304-0.059,0.394,0.069
					c1.146,1.633,0.6,3.489-0.033,5.637c-0.887,3.011-1.893,6.424,1.32,10.478c0.097,0.123,0.077,0.301-0.046,0.398
					C267.712,125.396,267.65,125.416,267.588,125.416z"/>
			</g>
			<g id="XMLID_37_">
				<path style="fill:#353B4A;" d="M262.441,132.098c-0.026,0-0.052-0.004-0.078-0.011l-4.364-1.263
					c-4.52-1.309-4.222-3.301-3.876-5.608c0.332-2.215,0.745-4.971-2.811-8.377c-0.113-0.108-0.117-0.288-0.009-0.401
					c0.109-0.113,0.288-0.117,0.401-0.009c3.768,3.609,3.331,6.526,2.979,8.871c-0.344,2.294-0.571,3.809,3.473,4.979l4.364,1.263
					c0.151,0.044,0.237,0.201,0.194,0.351C262.677,132.017,262.564,132.098,262.441,132.098z"/>
			</g>
			<g id="XMLID_38_">
				<path style="fill:#353B4A;" d="M267.526,135.656c-0.529,0-1.101-0.054-1.677-0.127c-0.155-0.019-0.265-0.161-0.246-0.316
					c0.019-0.156,0.163-0.264,0.316-0.246c1.331,0.167,2.922,0.266,3.411-0.457c0.348-0.514,0.14-1.495-0.602-2.837
					c-0.076-0.137-0.026-0.309,0.111-0.385c0.137-0.076,0.31-0.026,0.385,0.111c0.876,1.585,1.064,2.706,0.575,3.428
					C269.371,135.461,268.526,135.656,267.526,135.656z"/>
			</g>
			<g id="XMLID_43_">
				<path style="fill:#353B4A;" d="M265.174,129.908c-0.151,0-0.277-0.119-0.283-0.271c-0.006-0.156,0.115-0.289,0.272-0.295
					c1.476-0.062,2.882-0.943,3.58-2.246c0.074-0.138,0.247-0.189,0.383-0.116c0.138,0.074,0.19,0.246,0.116,0.383
					c-0.791,1.476-2.383,2.474-4.056,2.544C265.182,129.908,265.178,129.908,265.174,129.908z"/>
			</g>
		</g>
		<g id="XMLID_710_">
			<path style="fill:#617690;" d="M242.734,235.755c0.504,1.658,1.836,2.932,3.515,3.358c27.308,6.92,54.471,3.094,46.31-7.914
				c-9.805-13.225-5.822-37.309-8.063-51.766c-5.265-33.97-22.643-39.807-22.643-39.807c-6.6,10.268-18.237,2.445-18.237,2.445
				c-4.386,1.348-15.568,5.088-15.568,5.088C222.688,167.569,238.86,223.008,242.734,235.755z"/>
			<path style="fill:#3B314A;" d="M272.715,242.831c-8.015,0-17.388-1.125-26.535-3.443c-1.763-0.447-3.187-1.806-3.717-3.55
				c-3.404-11.199-20.11-68.111-14.688-88.751l0.039-0.148l0.145-0.048c0.112-0.037,11.236-3.756,15.575-5.09l0.129-0.04
				l0.112,0.075c0.056,0.038,5.622,3.72,11.096,2.585c2.728-0.565,4.998-2.229,6.745-4.948l0.119-0.186l0.209,0.07
				c0.175,0.059,17.601,6.282,22.832,40.032c0.706,4.554,0.797,10.042,0.892,15.851c0.208,12.555,0.443,26.785,7.118,35.789
				c1.746,2.355,2.006,4.483,0.772,6.324C291.144,240.956,283.06,242.831,272.715,242.831z M243.005,235.673
				c0.473,1.555,1.742,2.768,3.314,3.166c20.748,5.258,42.602,4.415,46.769-1.8c1.086-1.621,0.832-3.529-0.756-5.671
				c-6.784-9.15-7.02-23.477-7.23-36.118c-0.096-5.79-0.186-11.258-0.886-15.774c-4.868-31.404-20.299-38.701-22.251-39.503
				c-1.816,2.738-4.165,4.421-6.983,5.003c-5.336,1.103-10.553-2.047-11.409-2.595c-4.139,1.278-13.972,4.558-15.289,4.998
				C223.02,167.995,239.617,224.526,243.005,235.673L243.005,235.673z"/>
		</g>
		<g id="XMLID_25_">
			<g id="XMLID_11_">
				<path style="fill:#3B314A;" d="M280.142,242.501c-0.079,0-0.157-0.033-0.213-0.096c-9.755-11.064-9.451-23.096-9.1-37.028
					c0.419-16.625,0.941-37.314-16.033-63.555c-0.085-0.131-0.048-0.307,0.084-0.392c0.131-0.084,0.307-0.048,0.392,0.084
					c17.069,26.388,16.544,47.175,16.123,63.877c-0.349,13.813-0.649,25.742,8.959,36.639c0.103,0.117,0.092,0.297-0.025,0.4
					C280.275,242.478,280.208,242.501,280.142,242.501z"/>
			</g>
			<g id="XMLID_24_">
				<path style="fill:#3B314A;" d="M286.014,241.487c-0.085,0-0.17-0.039-0.226-0.112c-6.538-8.616-7.682-14.984-8.439-19.198
					c-0.788-4.389-1.148-6.393-6.369-6.81c-0.156-0.012-0.272-0.149-0.259-0.305c0.012-0.156,0.152-0.27,0.305-0.259
					c5.657,0.452,6.092,2.875,6.882,7.274c0.747,4.161,1.877,10.448,8.333,18.955c0.095,0.125,0.07,0.303-0.054,0.397
					C286.134,241.468,286.074,241.487,286.014,241.487z"/>
			</g>
		</g>
		<g id="XMLID_713_">
			<path style="fill:#383B4F;" d="M260.067,134.893c0.672-0.413,1.523-0.3,1.862,0.412c1.809,3.802,3.223,6.621-2.696,8.99
				c-11.766,4.708-9.941,2.983-15.616-2.223C245.33,141.526,248.629,141.921,260.067,134.893z"/>
			<path style="fill:#424459;" d="M250.288,147.318c-1.827,0-2.832-0.924-4.465-2.646c-0.66-0.696-1.408-1.484-2.397-2.393
				l-0.36-0.331l0.466-0.148c0.316-0.1,0.667-0.168,1.113-0.253c2.056-0.393,5.882-1.125,15.275-6.896
				c0.441-0.271,0.951-0.35,1.398-0.219c0.384,0.114,0.692,0.38,0.868,0.75l0.056,0.117c1.07,2.248,1.994,4.19,1.305,5.951
				c-0.514,1.313-1.851,2.363-4.208,3.306C254.64,146.437,252.072,147.318,250.288,147.318z M244.189,142.216
				c0.819,0.774,1.466,1.456,2.045,2.067c2.99,3.153,3.375,3.556,12.893-0.251c2.171-0.869,3.443-1.845,3.89-2.987
				c0.6-1.532-0.275-3.372-1.289-5.501l-0.055-0.117c-0.108-0.226-0.287-0.382-0.518-0.45c-0.289-0.086-0.64-0.026-0.94,0.158
				c-9.481,5.825-13.374,6.57-15.465,6.97C244.544,142.144,244.358,142.18,244.189,142.216z"/>
		</g>
		<g id="XMLID_716_">
			<path id="XMLID_719_" style="fill:#EF7957;" d="M150.601,180.115c-3.418,1.463,2.537,4.434,11.312,0.179
				c-1.491-0.794-2.498-0.414-4.007-0.228C155.1,180.411,151.78,179.61,150.601,180.115z"/>
			<path id="XMLID_718_" style="fill:#F39F84;" d="M142.077,190.082c-0.419,0.24-1.089-0.02-1.255-0.473
				c-0.538-1.468,7.465-5.011,15.414-5.009C151.921,186.583,146.033,187.816,142.077,190.082z"/>
			<path id="XMLID_717_" style="fill:#FFA887;" d="M166.793,178.209l10.781,2.732l-4.299,9.702l-7.384-5.761
				c-1.432-1.089-0.105-0.876-23.32,2.625c-1.411,0.213-1.847-0.774-0.62-1.36c2.18-1.041,5.653-2.178,8.044-1.833
				c-1.598-0.313-5.894,0.589-5.805-0.63c0.098-1.33,7.128-1.167,9.374-1.747C156.213,181.251,162.888,176.412,166.793,178.209z"/>
		</g>
		<g id="XMLID_715_">
			<path style="fill:#617690;" d="M201.583,187.996l-29.814-10.495c-1.785-0.628-4.479,7.306-5.056,9.921
				c-0.679,3.075,36.999,24.45,44.262,22.863c8.464-1.849,18.833-24.961,23.313-32.874c3.081-5.441,3.772-33.335-6.239-30.253
				c-2.791,0.859-19.593,32.063-23.725,39.776C203.798,187.918,202.635,188.367,201.583,187.996z"/>
			<path style="fill:#3B314A;" d="M210.091,210.652c-8.373,0.001-37.502-16.389-42.698-21.597c-0.743-0.744-1.047-1.283-0.956-1.693
				c0.519-2.348,2.713-8.986,4.579-10.024c0.294-0.163,0.579-0.198,0.848-0.104l29.814,10.495c0.926,0.326,1.935-0.065,2.397-0.928
				c7.801-14.561,21.277-39.108,23.891-39.913c2.054-0.632,3.804-0.073,5.199,1.663c4.753,5.913,3.931,24.477,1.37,29.001
				c-0.807,1.424-1.801,3.337-2.953,5.55c-5.368,10.32-13.482,25.917-20.546,27.46C210.76,210.623,210.443,210.652,210.091,210.652z
				 M171.563,177.75c-0.082,0-0.172,0.028-0.272,0.084c-1.606,0.893-3.771,7.249-4.301,9.651c-0.007,0.031-0.042,0.323,0.804,1.171
				c5.238,5.25,36.646,22.773,43.121,21.354c6.806-1.487,15.169-17.563,20.165-27.168c1.154-2.219,2.151-4.135,2.963-5.568
				c2.442-4.312,3.213-22.73-1.318-28.366c-1.236-1.537-2.78-2.034-4.591-1.476c-1.742,0.536-10.549,15.354-23.558,39.639
				c-0.596,1.112-1.893,1.615-3.085,1.195l-29.814-10.495C171.64,177.756,171.602,177.75,171.563,177.75z"/>
		</g>
		<g id="XMLID_6_">
			<path style="fill:#514342;" d="M272.712,366.815c-0.292,5.089,6.745,5.589,12.412,4.518c2.484-0.47,4.031-2.95,3.333-5.38
				c-1.349-4.698-3.788-10.767-7.359-11.154C271.974,353.811,273.141,359.342,272.712,366.815z"/>
			<path style="fill:#463C3A;" d="M280.418,372.05c-2.615,0-5.108-0.478-6.585-1.776c-0.997-0.876-1.461-2.044-1.378-3.474
				c0.055-0.952,0.083-1.872,0.111-2.751c0.116-3.73,0.208-6.676,2.094-8.316c1.319-1.147,3.376-1.524,6.467-1.189
				c3.688,0.399,6.157,6.386,7.579,11.339c0.356,1.24,0.18,2.526-0.494,3.621c-0.669,1.087-1.778,1.847-3.039,2.085
				C283.68,371.869,282.026,372.05,280.418,372.05z M279.123,354.941c-1.878,0-3.211,0.387-4.125,1.181
				c-1.716,1.492-1.804,4.338-1.917,7.942c-0.028,0.884-0.056,1.809-0.112,2.765c-0.073,1.263,0.332,2.29,1.203,3.056
				c2.248,1.975,7.106,1.911,10.903,1.194c1.119-0.211,2.102-0.885,2.695-1.848c0.597-0.97,0.753-2.109,0.437-3.207
				c-1.128-3.93-3.556-10.58-7.138-10.968C280.364,354.98,279.717,354.941,279.123,354.941z"/>
		</g>
		<g id="XMLID_7_">
			<path style="fill:#514342;" d="M239.279,366.823c0.287,5.089-6.75,5.583-12.417,4.506c-2.484-0.472-4.028-2.954-3.328-5.384
				c1.353-4.697,3.799-10.763,7.37-11.146C240.03,353.819,238.857,359.349,239.279,366.823z"/>
			<path style="fill:#463C3A;" d="M231.59,372.05c-1.615,0-3.277-0.183-4.775-0.467c-1.262-0.24-2.369-1.001-3.037-2.088
				c-0.673-1.095-0.848-2.381-0.491-3.621c1.427-4.951,3.902-10.936,7.59-11.332c3.093-0.333,5.148,0.048,6.466,1.196
				c1.884,1.642,1.973,4.588,2.086,8.318c0.027,0.88,0.054,1.8,0.108,2.753c0.081,1.429-0.384,2.598-1.382,3.472
				C236.68,371.574,234.196,372.05,231.59,372.05z M232.866,354.942c-0.59,0-1.233,0.038-1.934,0.113
				c-3.583,0.385-6.017,7.033-7.149,10.961c-0.316,1.098-0.162,2.237,0.434,3.207c0.593,0.964,1.574,1.639,2.693,1.851
				c3.797,0.721,8.654,0.79,10.904-1.182c0.872-0.765,1.278-1.793,1.207-3.055c-0.054-0.957-0.082-1.882-0.109-2.766
				c-0.109-3.603-0.195-6.45-1.909-7.944C236.089,355.33,234.751,354.942,232.866,354.942z"/>
		</g>
		<g id="XMLID_872_">
			<path style="fill:#383B4F;" d="M253.013,214.109l-0.662-3.404c-0.139-0.716-14.82,1.724-14.557,2.985l0.542,2.594
				C238.475,216.953,253.259,215.376,253.013,214.109z"/>
			<path style="fill:#424459;" d="M239.509,216.73c-1.37,0-1.414-0.209-1.451-0.388l-0.542-2.594
				c-0.027-0.129-0.01-0.326,0.223-0.533c1.416-1.255,13.22-3.322,14.605-2.853c0.212,0.072,0.268,0.212,0.284,0.289l0.662,3.404
				c0.093,0.479-0.417,0.913-3.208,1.477c-1.977,0.399-4.827,0.789-7.439,1.018C241.175,216.679,240.182,216.73,239.509,216.73z
				 M238.589,216.115c1.554,0.497,13.454-1.174,14.137-1.996l-0.631-3.245c-1.582-0.436-13.395,1.908-14.016,2.797L238.589,216.115z
				"/>
		</g>
	</g>
</g>
</svg>
